<svg width="32" height="32" viewBox="0 0 32 32" fill="none" xmlns="http://www.w3.org/2000/svg">
<path d="M12.625 17.3H19.375M12.625 22.5H16M7 5.6V26.4C7 27.0896 7.23705 27.7509 7.65901 28.2385C8.08097 28.7261 8.65326 29 9.25 29H22.75C23.3467 29 23.919 28.7261 24.341 28.2385C24.7629 27.7509 25 27.0896 25 26.4V11.2446C25 10.8982 24.94 10.5554 24.8237 10.2361C24.7074 9.91688 24.5371 9.62771 24.3228 9.3856L19.3278 3.741C18.9074 3.26605 18.3429 3.00008 17.755 3H9.25C8.65326 3 8.08097 3.27393 7.65901 3.76152C7.23705 4.24912 7 4.91044 7 5.6Z" stroke="#FFFFFF" stroke-width="1.75" stroke-linecap="round" stroke-linejoin="round"/>
<path d="M18.25 3V8.2C18.25 8.88956 18.4871 9.55088 18.909 10.0385C19.331 10.5261 19.9033 10.8 20.5 10.8H25" stroke="#FFFFFF" stroke-width="1.75" stroke-linejoin="round"/>
</svg>
