<svg width="32" height="32" viewBox="0 0 32 32" fill="none" xmlns="http://www.w3.org/2000/svg">
<circle cx="12.7227" cy="19.4634" r="6.01077" transform="rotate(45 12.7227 19.4634)" stroke="#FFFFFF" stroke-width="1.75" stroke-linecap="round" stroke-linejoin="round"/>
<path d="M26.0924 7.33063C26.4341 6.98892 26.4341 6.4349 26.0924 6.0932C25.7506 5.75149 25.1966 5.75149 24.8549 6.0932L26.0924 7.33063ZM16.3544 14.5937C16.0127 14.9354 16.0127 15.4894 16.3544 15.8311C16.6961 16.1728 17.2501 16.1728 17.5918 15.8311L16.3544 14.5937ZM24.8549 6.0932L16.3544 14.5937L17.5918 15.8311L26.0924 7.33063L24.8549 6.0932Z" fill="#FFFFFF"/>
<path d="M24.8549 12.9976C25.1966 13.3393 25.7506 13.3393 26.0924 12.9976C26.4341 12.6559 26.4341 12.1019 26.0924 11.7602L24.8549 12.9976ZM23.2589 8.92669C22.9171 8.58498 22.3631 8.58498 22.0214 8.92669C21.6797 9.2684 21.6797 9.82241 22.0214 10.1641L23.2589 8.92669ZM26.0924 11.7602L23.2589 8.92669L22.0214 10.1641L24.8549 12.9976L26.0924 11.7602Z" fill="#FFFFFF"/>
</svg>
