<svg width="24" height="24" viewBox="0 0 24 24" fill="none" xmlns="http://www.w3.org/2000/svg">
<path d="M12.1644 19.4717L11.4684 18.9414L12.1644 19.4717ZM11.2717 19.098L10.4055 18.9742L11.2717 19.098ZM12.0755 9.93392L12.9428 10.0496L12.0755 9.93392ZM12.7392 4.9563L11.8718 4.84065L12.7392 4.9563ZM5.57752 13.2059L4.86987 12.6913L5.57752 13.2059ZM6.28516 13.7206L12.5468 5.11078L11.1315 4.08148L4.86987 12.6913L6.28516 13.7206ZM11.8718 4.84065L11.2082 9.81827L12.9428 10.0496L13.6065 5.07194L11.8718 4.84065ZM12.5711 11.375H17.9905V9.625H12.5711V11.375ZM17.6922 10.7727L11.4684 18.9414L12.8604 20.002L19.0842 11.8333L17.6922 10.7727ZM12.1379 19.2217L12.7847 14.6945L11.0523 14.447L10.4055 18.9742L12.1379 19.2217ZM11.4235 13.125H5.98188V14.875H11.4235V13.125ZM12.7847 14.6945C12.903 13.8661 12.2602 13.125 11.4235 13.125V14.875C11.1953 14.875 11.02 14.6729 11.0523 14.447L12.7847 14.6945ZM11.4684 18.9414C11.7027 18.634 12.1926 18.8391 12.1379 19.2217L10.4055 18.9742C10.2051 20.3773 12.0015 21.1294 12.8604 20.002L11.4684 18.9414ZM17.9905 11.375C17.6801 11.375 17.5041 11.0196 17.6922 10.7727L19.0842 11.8333C19.7738 10.9282 19.1283 9.625 17.9905 9.625V11.375ZM11.2082 9.81827C11.0982 10.6426 11.7395 11.375 12.5711 11.375V9.625C12.7979 9.625 12.9728 9.82476 12.9428 10.0496L11.2082 9.81827ZM12.5468 5.11078C12.3179 5.42548 11.8204 5.22636 11.8718 4.84065L13.6065 5.07194C13.7951 3.65767 11.9707 2.92758 11.1315 4.08148L12.5468 5.11078ZM4.86987 12.6913C4.2089 13.6001 4.85812 14.875 5.98188 14.875V13.125C6.28837 13.125 6.46543 13.4727 6.28516 13.7206L4.86987 12.6913Z" fill="#ffffff"/>
</svg>
