<svg width="24" height="24" viewBox="0 0 24 24" fill="none" xmlns="http://www.w3.org/2000/svg">
<path d="M6.55556 9.55566H5C4.44772 9.55566 4 10.0034 4 10.5557V17.4446C4 17.9968 4.44771 18.4446 5 18.4446H6.55556C7.10784 18.4446 7.55556 17.9968 7.55556 17.4446V10.5557C7.55556 10.0034 7.10784 9.55566 6.55556 9.55566Z" stroke="#2B2F31" stroke-width="1.75" stroke-linecap="round" stroke-linejoin="round"/>
<path d="M12.7782 6H11.2227C10.6704 6 10.2227 6.44771 10.2227 7V17.4444C10.2227 17.9967 10.6704 18.4444 11.2227 18.4444H12.7782C13.3305 18.4444 13.7782 17.9967 13.7782 17.4444V7C13.7782 6.44772 13.3305 6 12.7782 6Z" stroke="#2B2F31" stroke-width="1.75" stroke-linecap="round" stroke-linejoin="round"/>
<path d="M18.9999 14H17.4443C16.8921 14 16.4443 14.4477 16.4443 15V17.4444C16.4443 17.9967 16.8921 18.4444 17.4443 18.4444H18.9999C19.5522 18.4444 19.9999 17.9967 19.9999 17.4444V15C19.9999 14.4477 19.5522 14 18.9999 14Z" stroke="#2B2F31" stroke-width="1.75" stroke-linecap="round" stroke-linejoin="round"/>
</svg>
