<svg width="24" height="24" viewBox="0 0 24 24" fill="none" xmlns="http://www.w3.org/2000/svg">
<rect x="4" y="4" width="5.71424" height="5.71424" rx="1" stroke="#2B2F31" stroke-width="1.75" stroke-linecap="round" stroke-linejoin="round"/>
<rect x="13.1426" y="4" width="5.71424" height="5.71424" rx="1" stroke="#2B2F31" stroke-width="1.75" stroke-linecap="round" stroke-linejoin="round"/>
<rect x="4" y="13.1431" width="5.71424" height="5.71424" rx="1" stroke="#2B2F31" stroke-width="1.75" stroke-linecap="round" stroke-linejoin="round"/>
<path d="M14.28 15.06C14.1184 15.06 13.9445 15.0224 13.7953 14.9598C13.6462 14.8972 13.4971 14.8096 13.3728 14.6844C13.1243 14.4466 13 14.1211 13 13.7706C13 13.6079 13.0373 13.4326 13.0994 13.2824C13.1616 13.1196 13.2485 12.9819 13.3728 12.8568C13.8451 12.3811 14.715 12.3811 15.1872 12.8568C15.299 12.9819 15.386 13.1322 15.4606 13.2824C15.5352 13.4326 15.56 13.6079 15.56 13.7706C15.56 14.1086 15.4357 14.4215 15.1872 14.6844C14.9511 14.9348 14.628 15.06 14.28 15.06Z" fill="#2B2F31"/>
<path d="M18.28 15.06C18.1184 15.06 17.9445 15.0224 17.7953 14.9598C17.6462 14.8972 17.4971 14.8096 17.3728 14.6844C17.1243 14.4466 17 14.1211 17 13.7706C17 13.6079 17.0373 13.4326 17.0994 13.2824C17.1616 13.1196 17.2485 12.9819 17.3728 12.8568C17.8451 12.3811 18.715 12.3811 19.1872 12.8568C19.299 12.9819 19.386 13.1322 19.4606 13.2824C19.5352 13.4326 19.56 13.6079 19.56 13.7706C19.56 14.1086 19.4357 14.4215 19.1872 14.6844C18.9511 14.9348 18.628 15.06 18.28 15.06Z" fill="#2B2F31"/>
<path d="M18.28 19.56C18.1184 19.56 17.9445 19.5224 17.7953 19.4598C17.6462 19.3972 17.4971 19.3096 17.3728 19.1844C17.1243 18.9466 17 18.6211 17 18.2706C17 18.1079 17.0373 17.9326 17.0994 17.7824C17.1616 17.6196 17.2485 17.4819 17.3728 17.3568C17.8451 16.8811 18.715 16.8811 19.1872 17.3568C19.299 17.4819 19.386 17.6322 19.4606 17.7824C19.5352 17.9326 19.56 18.1079 19.56 18.2706C19.56 18.6086 19.4357 18.9215 19.1872 19.1844C18.9511 19.4348 18.628 19.56 18.28 19.56Z" fill="#2B2F31"/>
<path d="M14.28 19.56C14.1184 19.56 13.9445 19.5224 13.7953 19.4598C13.6462 19.3972 13.4971 19.3096 13.3728 19.1844C13.1243 18.9466 13 18.6211 13 18.2706C13 18.1079 13.0373 17.9326 13.0994 17.7824C13.1616 17.6196 13.2485 17.4819 13.3728 17.3568C13.8451 16.8811 14.715 16.8811 15.1872 17.3568C15.299 17.4819 15.386 17.6322 15.4606 17.7824C15.5352 17.9326 15.56 18.1079 15.56 18.2706C15.56 18.6086 15.4357 18.9215 15.1872 19.1844C14.9511 19.4348 14.628 19.56 14.28 19.56Z" fill="#2B2F31"/>
</svg>
