<svg width="24" height="24" viewBox="0 0 24 24" fill="none" xmlns="http://www.w3.org/2000/svg">
<path d="M3 5.5V19C3 19.5523 3.44772 20 4 20H20C20.5523 20 21 19.5523 21 19V7" stroke="#2B2F31" stroke-width="1.75" stroke-linecap="round"/>
<path d="M19 4H4.5C3.67157 4 3 4.67157 3 5.5V5.5C3 6.32843 3.67157 7 4.5 7H21" stroke="#2B2F31" stroke-width="1.75" stroke-linecap="round"/>
<path d="M14 13.75C14 12.2312 15.2312 11 16.75 11H20.3636C20.7151 11 21 11.2849 21 11.6364V15.8636C21 16.2151 20.7151 16.5 20.3636 16.5H16.75C15.2312 16.5 14 15.2688 14 13.75V13.75Z" stroke="#2B2F31" stroke-width="1.75" stroke-linecap="round"/>
</svg>
