<svg width="24" height="24" viewBox="0 0 24 24" fill="none" xmlns="http://www.w3.org/2000/svg">
<path d="M17.5 10.6648L12.4703 3.27858C12.4198 3.19316 12.3503 3.12288 12.2681 3.0742C12.1859 3.02552 12.0937 3 12 3C11.9063 3 11.8141 3.02552 11.7319 3.0742C11.6498 3.12288 11.5802 3.19316 11.5297 3.27858L6.5 10.6649C5.74264 11.7771 5.49664 13.1233 5.5 14.505C5.5 18.0863 8.69157 21 12 21C15.3084 21 18.5 18.0864 18.5 14.505C18.5033 13.1233 18.2574 11.777 17.5 10.6648ZM7.11695 14.505C7.1141 13.375 7.35679 11.9409 7.97878 11.0334C7.9862 11.0225 7.99328 11.0114 8 11L12 5L16 11C16.0067 11.0114 16.0138 11.0225 16.0212 11.0334C16.6433 11.9409 16.8859 13.375 16.8831 14.505C15.8572 14.505 7.71429 14.505 7.11695 14.505Z" fill="#484E52"/>
</svg>
