<svg width="32" height="32" viewBox="0 0 32 32" fill="none" xmlns="http://www.w3.org/2000/svg">
<rect width="32" height="32" rx="16" fill="#112EBD"/>
<rect x="8" y="8" width="5.71424" height="5.71424" rx="1" stroke="white" stroke-width="1.75" stroke-linecap="round" stroke-linejoin="round"/>
<rect x="17.1426" y="8" width="5.71424" height="5.71424" rx="1" stroke="white" stroke-width="1.75" stroke-linecap="round" stroke-linejoin="round"/>
<rect x="8" y="17.1431" width="5.71424" height="5.71424" rx="1" stroke="white" stroke-width="1.75" stroke-linecap="round" stroke-linejoin="round"/>
<path d="M18.28 19.06C18.1184 19.06 17.9445 19.0224 17.7953 18.9598C17.6462 18.8972 17.4971 18.8096 17.3728 18.6844C17.1243 18.4466 17 18.1211 17 17.7706C17 17.6079 17.0373 17.4326 17.0994 17.2824C17.1616 17.1196 17.2485 16.9819 17.3728 16.8568C17.8451 16.3811 18.715 16.3811 19.1872 16.8568C19.299 16.9819 19.386 17.1322 19.4606 17.2824C19.5352 17.4326 19.56 17.6079 19.56 17.7706C19.56 18.1086 19.4357 18.4215 19.1872 18.6844C18.9511 18.9348 18.628 19.06 18.28 19.06Z" fill="white"/>
<path d="M22.28 19.06C22.1184 19.06 21.9445 19.0224 21.7953 18.9598C21.6462 18.8972 21.4971 18.8096 21.3728 18.6844C21.1243 18.4466 21 18.1211 21 17.7706C21 17.6079 21.0373 17.4326 21.0994 17.2824C21.1616 17.1196 21.2485 16.9819 21.3728 16.8568C21.8451 16.3811 22.715 16.3811 23.1872 16.8568C23.299 16.9819 23.386 17.1322 23.4606 17.2824C23.5352 17.4326 23.56 17.6079 23.56 17.7706C23.56 18.1086 23.4357 18.4215 23.1872 18.6844C22.9511 18.9348 22.628 19.06 22.28 19.06Z" fill="white"/>
<path d="M22.28 23.56C22.1184 23.56 21.9445 23.5224 21.7953 23.4598C21.6462 23.3972 21.4971 23.3096 21.3728 23.1844C21.1243 22.9466 21 22.6211 21 22.2706C21 22.1079 21.0373 21.9326 21.0994 21.7824C21.1616 21.6196 21.2485 21.4819 21.3728 21.3568C21.8451 20.8811 22.715 20.8811 23.1872 21.3568C23.299 21.4819 23.386 21.6322 23.4606 21.7824C23.5352 21.9326 23.56 22.1079 23.56 22.2706C23.56 22.6086 23.4357 22.9215 23.1872 23.1844C22.9511 23.4348 22.628 23.56 22.28 23.56Z" fill="white"/>
<path d="M18.28 23.56C18.1184 23.56 17.9445 23.5224 17.7953 23.4598C17.6462 23.3972 17.4971 23.3096 17.3728 23.1844C17.1243 22.9466 17 22.6211 17 22.2706C17 22.1079 17.0373 21.9326 17.0994 21.7824C17.1616 21.6196 17.2485 21.4819 17.3728 21.3568C17.8451 20.8811 18.715 20.8811 19.1872 21.3568C19.299 21.4819 19.386 21.6322 19.4606 21.7824C19.5352 21.9326 19.56 22.1079 19.56 22.2706C19.56 22.6086 19.4357 22.9215 19.1872 23.1844C18.9511 23.4348 18.628 23.56 18.28 23.56Z" fill="white"/>
</svg>
