<svg width="20" height="20" viewBox="0 0 20 20" fill="none" xmlns="http://www.w3.org/2000/svg">
<path d="M10.875 3.3335C10.875 2.85025 10.4832 2.4585 10 2.4585C9.51675 2.4585 9.125 2.85025 9.125 3.3335L10.875 3.3335ZM9.125 14.1668C9.125 14.6501 9.51675 15.0418 10 15.0418C10.4832 15.0418 10.875 14.6501 10.875 14.1668L9.125 14.1668ZM9.125 3.3335L9.125 14.1668L10.875 14.1668L10.875 3.3335L9.125 3.3335Z" fill="#2B2F31"/>
<path d="M14.166 7.0835L9.99935 3.3335L5.83268 7.0835" stroke="#2B2F31" stroke-width="1.75" stroke-linecap="round" stroke-linejoin="round"/>
<path d="M16.6673 18.25C17.0815 18.25 17.4173 17.9142 17.4173 17.5C17.4173 17.0858 17.0815 16.75 16.6673 16.75L16.6673 18.25ZM3.33398 16.75C2.91977 16.75 2.58398 17.0858 2.58398 17.5C2.58398 17.9142 2.91977 18.25 3.33398 18.25L3.33398 16.75ZM16.6673 17.5C16.6673 16.75 16.6673 16.75 16.6672 16.75C16.6672 16.75 16.6671 16.75 16.667 16.75C16.6668 16.75 16.6667 16.75 16.6665 16.75C16.6664 16.75 16.6662 16.75 16.6659 16.75C16.6657 16.75 16.6654 16.75 16.6651 16.75C16.6648 16.75 16.6645 16.75 16.6642 16.75C16.6638 16.75 16.6635 16.75 16.663 16.75C16.6626 16.75 16.6622 16.75 16.6617 16.75C16.6613 16.75 16.6608 16.75 16.6603 16.75C16.6598 16.75 16.6592 16.75 16.6586 16.75C16.6581 16.75 16.6574 16.75 16.6568 16.75C16.6562 16.75 16.6555 16.75 16.6548 16.75C16.6541 16.75 16.6534 16.75 16.6527 16.75C16.6519 16.75 16.6512 16.75 16.6503 16.75C16.6495 16.75 16.6487 16.75 16.6479 16.75C16.647 16.75 16.6461 16.75 16.6452 16.75C16.6443 16.75 16.6433 16.75 16.6424 16.75C16.6414 16.75 16.6404 16.75 16.6394 16.75C16.6383 16.75 16.6373 16.75 16.6362 16.75C16.6351 16.75 16.634 16.75 16.6329 16.75C16.6317 16.75 16.6306 16.75 16.6294 16.75C16.6282 16.75 16.6269 16.75 16.6257 16.75C16.6244 16.75 16.6232 16.75 16.6219 16.75C16.6206 16.75 16.6192 16.75 16.6179 16.75C16.6165 16.75 16.6151 16.75 16.6137 16.75C16.6123 16.75 16.6108 16.75 16.6094 16.75C16.6079 16.75 16.6064 16.75 16.6049 16.75C16.6034 16.75 16.6018 16.75 16.6002 16.75C16.5986 16.75 16.597 16.75 16.5954 16.75C16.5938 16.75 16.5921 16.75 16.5904 16.75C16.5887 16.75 16.587 16.75 16.5853 16.75C16.5835 16.75 16.5818 16.75 16.58 16.75C16.5782 16.75 16.5764 16.75 16.5745 16.75C16.5727 16.75 16.5708 16.75 16.5689 16.75C16.567 16.75 16.5651 16.75 16.5631 16.75C16.5611 16.75 16.5592 16.75 16.5572 16.75C16.5551 16.75 16.5531 16.75 16.5511 16.75C16.549 16.75 16.5469 16.75 16.5448 16.75C16.5427 16.75 16.5405 16.75 16.5384 16.75C16.5362 16.75 16.534 16.75 16.5318 16.75C16.5296 16.75 16.5273 16.75 16.525 16.75C16.5228 16.75 16.5205 16.75 16.5181 16.75C16.5158 16.75 16.5135 16.75 16.5111 16.75C16.5087 16.75 16.5063 16.75 16.5039 16.75C16.5014 16.75 16.499 16.75 16.4965 16.75C16.494 16.75 16.4915 16.75 16.489 16.75C16.4864 16.75 16.4839 16.75 16.4813 16.75C16.4787 16.75 16.4761 16.75 16.4735 16.75C16.4708 16.75 16.4682 16.75 16.4655 16.75C16.4628 16.75 16.4601 16.75 16.4573 16.75C16.4546 16.75 16.4518 16.75 16.449 16.75C16.4462 16.75 16.4434 16.75 16.4406 16.75C16.4377 16.75 16.4349 16.75 16.432 16.75C16.4291 16.75 16.4262 16.75 16.4232 16.75C16.4203 16.75 16.4173 16.75 16.4143 16.75C16.4113 16.75 16.4083 16.75 16.4053 16.75C16.4022 16.75 16.3991 16.75 16.396 16.75C16.393 16.75 16.3898 16.75 16.3867 16.75C16.3835 16.75 16.3804 16.75 16.3772 16.75C16.374 16.75 16.3708 16.75 16.3675 16.75C16.3643 16.75 16.361 16.75 16.3577 16.75C16.3544 16.75 16.3511 16.75 16.3477 16.75C16.3444 16.75 16.341 16.75 16.3376 16.75C16.3342 16.75 16.3308 16.75 16.3274 16.75C16.3239 16.75 16.3205 16.75 16.317 16.75C16.3135 16.75 16.31 16.75 16.3064 16.75C16.3029 16.75 16.2993 16.75 16.2957 16.75C16.2921 16.75 16.2885 16.75 16.2849 16.75C16.2813 16.75 16.2776 16.75 16.2739 16.75C16.2702 16.75 16.2665 16.75 16.2628 16.75C16.259 16.75 16.2553 16.75 16.2515 16.75C16.2477 16.75 16.2439 16.75 16.2401 16.75C16.2362 16.75 16.2324 16.75 16.2285 16.75C16.2246 16.75 16.2207 16.75 16.2168 16.75C16.2129 16.75 16.2089 16.75 16.2049 16.75C16.201 16.75 16.197 16.75 16.1929 16.75C16.1889 16.75 16.1849 16.75 16.1808 16.75C16.1767 16.75 16.1726 16.75 16.1685 16.75C16.1644 16.75 16.1602 16.75 16.1561 16.75C16.1519 16.75 16.1477 16.75 16.1435 16.75C16.1393 16.75 16.1351 16.75 16.1308 16.75C16.1265 16.75 16.1223 16.75 16.118 16.75C16.1137 16.75 16.1093 16.75 16.105 16.75C16.1006 16.75 16.0962 16.75 16.0918 16.75C16.0874 16.75 16.083 16.75 16.0786 16.75C16.0741 16.75 16.0697 16.75 16.0652 16.75C16.0607 16.75 16.0562 16.75 16.0516 16.75C16.0471 16.75 16.0425 16.75 16.038 16.75C16.0334 16.75 16.0288 16.75 16.0241 16.75C16.0195 16.75 16.0149 16.75 16.0102 16.75C16.0055 16.75 16.0008 16.75 15.9961 16.75C15.9914 16.75 15.9866 16.75 15.9819 16.75C15.9771 16.75 15.9723 16.75 15.9675 16.75C15.9627 16.75 15.9579 16.75 15.953 16.75C15.9482 16.75 15.9433 16.75 15.9384 16.75C15.9335 16.75 15.9286 16.75 15.9236 16.75C15.9187 16.75 15.9137 16.75 15.9087 16.75C15.9037 16.75 15.8987 16.75 15.8937 16.75C15.8886 16.75 15.8836 16.75 15.8785 16.75C15.8734 16.75 15.8683 16.75 15.8632 16.75C15.8581 16.75 15.853 16.75 15.8478 16.75C15.8426 16.75 15.8374 16.75 15.8322 16.75C15.827 16.75 15.8218 16.75 15.8165 16.75C15.8113 16.75 15.806 16.75 15.8007 16.75C15.7954 16.75 15.7901 16.75 15.7848 16.75C15.7794 16.75 15.774 16.75 15.7687 16.75C15.7633 16.75 15.7579 16.75 15.7525 16.75C15.747 16.75 15.7416 16.75 15.7361 16.75C15.7306 16.75 15.7251 16.75 15.7196 16.75C15.7141 16.75 15.7086 16.75 15.703 16.75C15.6975 16.75 15.6919 16.75 15.6863 16.75C15.6807 16.75 15.6751 16.75 15.6695 16.75C15.6638 16.75 15.6582 16.75 15.6525 16.75C15.6468 16.75 15.6411 16.75 15.6354 16.75C15.6296 16.75 15.6239 16.75 15.6181 16.75C15.6124 16.75 15.6066 16.75 15.6008 16.75C15.595 16.75 15.5891 16.75 15.5833 16.75C15.5774 16.75 15.5716 16.75 15.5657 16.75C15.5598 16.75 15.5539 16.75 15.5479 16.75C15.542 16.75 15.536 16.75 15.5301 16.75C15.5241 16.75 15.5181 16.75 15.5121 16.75C15.5061 16.75 15.5 16.75 15.494 16.75C15.4879 16.75 15.4818 16.75 15.4758 16.75C15.4697 16.75 15.4635 16.75 15.4574 16.75C15.4513 16.75 15.4451 16.75 15.4389 16.75C15.4327 16.75 15.4266 16.75 15.4203 16.75C15.4141 16.75 15.4079 16.75 15.4016 16.75C15.3954 16.75 15.3891 16.75 15.3828 16.75C15.3765 16.75 15.3702 16.75 15.3638 16.75C15.3575 16.75 15.3511 16.75 15.3448 16.75C15.3384 16.75 15.332 16.75 15.3256 16.75C15.3191 16.75 15.3127 16.75 15.3062 16.75C15.2998 16.75 15.2933 16.75 15.2868 16.75C15.2803 16.75 15.2738 16.75 15.2673 16.75C15.2607 16.75 15.2542 16.75 15.2476 16.75C15.241 16.75 15.2344 16.75 15.2278 16.75C15.2212 16.75 15.2146 16.75 15.2079 16.75C15.2013 16.75 15.1946 16.75 15.1879 16.75C15.1812 16.75 15.1745 16.75 15.1678 16.75C15.161 16.75 15.1543 16.75 15.1475 16.75C15.1407 16.75 15.134 16.75 15.1271 16.75C15.1203 16.75 15.1135 16.75 15.1067 16.75C15.0998 16.75 15.093 16.75 15.0861 16.75C15.0792 16.75 15.0723 16.75 15.0654 16.75C15.0585 16.75 15.0515 16.75 15.0446 16.75C15.0376 16.75 15.0306 16.75 15.0236 16.75C15.0166 16.75 15.0096 16.75 15.0026 16.75C14.9955 16.75 14.9885 16.75 14.9814 16.75C14.9744 16.75 14.9673 16.75 14.9602 16.75C14.953 16.75 14.9459 16.75 14.9388 16.75C14.9316 16.75 14.9245 16.75 14.9173 16.75C14.9101 16.75 14.9029 16.75 14.8957 16.75C14.8885 16.75 14.8812 16.75 14.874 16.75C14.8667 16.75 14.8595 16.75 14.8522 16.75C14.8449 16.75 14.8376 16.75 14.8302 16.75C14.8229 16.75 14.8156 16.75 14.8082 16.75C14.8008 16.75 14.7935 16.75 14.7861 16.75C14.7787 16.75 14.7712 16.75 14.7638 16.75C14.7564 16.75 14.7489 16.75 14.7414 16.75C14.734 16.75 14.7265 16.75 14.719 16.75C14.7115 16.75 14.704 16.75 14.6964 16.75C14.6889 16.75 14.6813 16.75 14.6737 16.75C14.6662 16.75 14.6586 16.75 14.651 16.75C14.6433 16.75 14.6357 16.75 14.6281 16.75C14.6204 16.75 14.6128 16.75 14.6051 16.75C14.5974 16.75 14.5897 16.75 14.582 16.75C14.5743 16.75 14.5665 16.75 14.5588 16.75C14.551 16.75 14.5433 16.75 14.5355 16.75C14.5277 16.75 14.5199 16.75 14.5121 16.75C14.5042 16.75 14.4964 16.75 14.4886 16.75C14.4807 16.75 14.4728 16.75 14.4649 16.75C14.4571 16.75 14.4492 16.75 14.4412 16.75C14.4333 16.75 14.4254 16.75 14.4174 16.75C14.4095 16.75 14.4015 16.75 14.3935 16.75C14.3855 16.75 14.3775 16.75 14.3695 16.75C14.3615 16.75 14.3534 16.75 14.3454 16.75C14.3373 16.75 14.3292 16.75 14.3212 16.75C14.3131 16.75 14.305 16.75 14.2968 16.75C14.2887 16.75 14.2806 16.75 14.2724 16.75C14.2643 16.75 14.2561 16.75 14.2479 16.75C14.2397 16.75 14.2315 16.75 14.2233 16.75C14.2151 16.75 14.2069 16.75 14.1986 16.75C14.1904 16.75 14.1821 16.75 14.1738 16.75C14.1655 16.75 14.1572 16.75 14.1489 16.75C14.1406 16.75 14.1323 16.75 14.1239 16.75C14.1156 16.75 14.1072 16.75 14.0988 16.75C14.0905 16.75 14.0821 16.75 14.0736 16.75C14.0652 16.75 14.0568 16.75 14.0484 16.75C14.0399 16.75 14.0315 16.75 14.023 16.75C14.0145 16.75 14.006 16.75 13.9975 16.75C13.989 16.75 13.9805 16.75 13.972 16.75C13.9634 16.75 13.9549 16.75 13.9463 16.75C13.9377 16.75 13.9292 16.75 13.9206 16.75C13.912 16.75 13.9034 16.75 13.8947 16.75C13.8861 16.75 13.8775 16.75 13.8688 16.75C13.8601 16.75 13.8515 16.75 13.8428 16.75C13.8341 16.75 13.8254 16.75 13.8167 16.75C13.8079 16.75 13.7992 16.75 13.7905 16.75C13.7817 16.75 13.773 16.75 13.7642 16.75C13.7554 16.75 13.7466 16.75 13.7378 16.75C13.729 16.75 13.7202 16.75 13.7113 16.75C13.7025 16.75 13.6936 16.75 13.6848 16.75C13.6759 16.75 13.667 16.75 13.6581 16.75C13.6492 16.75 13.6403 16.75 13.6314 16.75C13.6224 16.75 13.6135 16.75 13.6046 16.75C13.5956 16.75 13.5866 16.75 13.5776 16.75C13.5687 16.75 13.5597 16.75 13.5506 16.75C13.5416 16.75 13.5326 16.75 13.5236 16.75C13.5145 16.75 13.5055 16.75 13.4964 16.75C13.4873 16.75 13.4782 16.75 13.4691 16.75C13.46 16.75 13.4509 16.75 13.4418 16.75C13.4327 16.75 13.4235 16.75 13.4144 16.75C13.4052 16.75 13.3961 16.75 13.3869 16.75C13.3777 16.75 13.3685 16.75 13.3593 16.75C13.3501 16.75 13.3408 16.75 13.3316 16.75C13.3224 16.75 13.3131 16.75 13.3039 16.75C13.2946 16.75 13.2853 16.75 13.276 16.75C13.2667 16.75 13.2574 16.75 13.2481 16.75C13.2388 16.75 13.2294 16.75 13.2201 16.75C13.2107 16.75 13.2014 16.75 13.192 16.75C13.1826 16.75 13.1732 16.75 13.1638 16.75C13.1544 16.75 13.145 16.75 13.1356 16.75C13.1262 16.75 13.1167 16.75 13.1073 16.75C13.0978 16.75 13.0884 16.75 13.0789 16.75C13.0694 16.75 13.0599 16.75 13.0504 16.75C13.0409 16.75 13.0314 16.75 13.0218 16.75C13.0123 16.75 13.0028 16.75 12.9932 16.75C12.9836 16.75 12.9741 16.75 12.9645 16.75C12.9549 16.75 12.9453 16.75 12.9357 16.75C12.9261 16.75 12.9165 16.75 12.9068 16.75C12.8972 16.75 12.8875 16.75 12.8779 16.75C12.8682 16.75 12.8586 16.75 12.8489 16.75C12.8392 16.75 12.8295 16.75 12.8198 16.75C12.8101 16.75 12.8003 16.75 12.7906 16.75C12.7809 16.75 12.7711 16.75 12.7614 16.75C12.7516 16.75 12.7418 16.75 12.732 16.75C12.7223 16.75 12.7125 16.75 12.7026 16.75C12.6928 16.75 12.683 16.75 12.6732 16.75C12.6633 16.75 12.6535 16.75 12.6436 16.75C12.6338 16.75 12.6239 16.75 12.614 16.75C12.6041 16.75 12.5943 16.75 12.5843 16.75C12.5744 16.75 12.5645 16.75 12.5546 16.75C12.5447 16.75 12.5347 16.75 12.5248 16.75C12.5148 16.75 12.5049 16.75 12.4949 16.75C12.4849 16.75 12.4749 16.75 12.4649 16.75C12.4549 16.75 12.4449 16.75 12.4349 16.75C12.4249 16.75 12.4148 16.75 12.4048 16.75C12.3947 16.75 12.3847 16.75 12.3746 16.75C12.3645 16.75 12.3544 16.75 12.3444 16.75C12.3343 16.75 12.3242 16.75 12.314 16.75C12.3039 16.75 12.2938 16.75 12.2837 16.75C12.2735 16.75 12.2634 16.75 12.2532 16.75C12.2431 16.75 12.2329 16.75 12.2227 16.75C12.2125 16.75 12.2023 16.75 12.1921 16.75C12.1819 16.75 12.1717 16.75 12.1615 16.75C12.1513 16.75 12.141 16.75 12.1308 16.75C12.1205 16.75 12.1103 16.75 12.1 16.75C12.0897 16.75 12.0795 16.75 12.0692 16.75C12.0589 16.75 12.0486 16.75 12.0383 16.75C12.028 16.75 12.0176 16.75 12.0073 16.75C11.997 16.75 11.9866 16.75 11.9763 16.75C11.9659 16.75 11.9556 16.75 11.9452 16.75C11.9348 16.75 11.9244 16.75 11.914 16.75C11.9036 16.75 11.8932 16.75 11.8828 16.75C11.8724 16.75 11.862 16.75 11.8515 16.75C11.8411 16.75 11.8306 16.75 11.8202 16.75C11.8097 16.75 11.7993 16.75 11.7888 16.75C11.7783 16.75 11.7678 16.75 11.7573 16.75C11.7468 16.75 11.7363 16.75 11.7258 16.75C11.7153 16.75 11.7048 16.75 11.6942 16.75C11.6837 16.75 11.6731 16.75 11.6626 16.75C11.652 16.75 11.6415 16.75 11.6309 16.75C11.6203 16.75 11.6097 16.75 11.5991 16.75C11.5885 16.75 11.5779 16.75 11.5673 16.75C11.5567 16.75 11.5461 16.75 11.5354 16.75C11.5248 16.75 11.5142 16.75 11.5035 16.75C11.4929 16.75 11.4822 16.75 11.4715 16.75C11.4609 16.75 11.4502 16.75 11.4395 16.75C11.4288 16.75 11.4181 16.75 11.4074 16.75C11.3967 16.75 11.386 16.75 11.3752 16.75C11.3645 16.75 11.3538 16.75 11.343 16.75C11.3323 16.75 11.3215 16.75 11.3108 16.75C11.3 16.75 11.2893 16.75 11.2785 16.75C11.2677 16.75 11.2569 16.75 11.2461 16.75C11.2353 16.75 11.2245 16.75 11.2137 16.75C11.2029 16.75 11.192 16.75 11.1812 16.75C11.1704 16.75 11.1595 16.75 11.1487 16.75C11.1378 16.75 11.127 16.75 11.1161 16.75C11.1052 16.75 11.0944 16.75 11.0835 16.75C11.0726 16.75 11.0617 16.75 11.0508 16.75C11.0399 16.75 11.029 16.75 11.0181 16.75C11.0072 16.75 10.9962 16.75 10.9853 16.75C10.9744 16.75 10.9634 16.75 10.9525 16.75C10.9415 16.75 10.9306 16.75 10.9196 16.75C10.9086 16.75 10.8977 16.75 10.8867 16.75C10.8757 16.75 10.8647 16.75 10.8537 16.75C10.8427 16.75 10.8317 16.75 10.8207 16.75C10.8097 16.75 10.7986 16.75 10.7876 16.75C10.7766 16.75 10.7655 16.75 10.7545 16.75C10.7434 16.75 10.7324 16.75 10.7213 16.75C10.7103 16.75 10.6992 16.75 10.6881 16.75C10.677 16.75 10.666 16.75 10.6549 16.75C10.6438 16.75 10.6327 16.75 10.6216 16.75C10.6105 16.75 10.5993 16.75 10.5882 16.75C10.5771 16.75 10.566 16.75 10.5548 16.75C10.5437 16.75 10.5326 16.75 10.5214 16.75C10.5103 16.75 10.4991 16.75 10.4879 16.75C10.4768 16.75 10.4656 16.75 10.4544 16.75C10.4432 16.75 10.432 16.75 10.4208 16.75C10.4097 16.75 10.3985 16.75 10.3872 16.75C10.376 16.75 10.3648 16.75 10.3536 16.75C10.3424 16.75 10.3311 16.75 10.3199 16.75C10.3087 16.75 10.2974 16.75 10.2862 16.75C10.2749 16.75 10.2637 16.75 10.2524 16.75C10.2412 16.75 10.2299 16.75 10.2186 16.75C10.2073 16.75 10.196 16.75 10.1848 16.75C10.1735 16.75 10.1622 16.75 10.1509 16.75C10.1396 16.75 10.1283 16.75 10.1169 16.75C10.1056 16.75 10.0943 16.75 10.083 16.75C10.0717 16.75 10.0603 16.75 10.049 16.75C10.0376 16.75 10.0263 16.75 10.0149 16.75C10.0036 16.75 9.99223 16.75 9.98086 16.75C9.9695 16.75 9.95813 16.75 9.94675 16.75C9.93537 16.75 9.92399 16.75 9.9126 16.75C9.90121 16.75 9.88982 16.75 9.87842 16.75C9.86701 16.75 9.85561 16.75 9.8442 16.75C9.83278 16.75 9.82136 16.75 9.80994 16.75C9.79852 16.75 9.78709 16.75 9.77565 16.75C9.76421 16.75 9.75277 16.75 9.74133 16.75C9.72988 16.75 9.71843 16.75 9.70697 16.75C9.69551 16.75 9.68405 16.75 9.67258 16.75C9.66111 16.75 9.64964 16.75 9.63816 16.75C9.62668 16.75 9.61519 16.75 9.6037 16.75C9.59221 16.75 9.58071 16.75 9.56921 16.75C9.55771 16.75 9.54621 16.75 9.53469 16.75C9.52318 16.75 9.51167 16.75 9.50014 16.75C9.48862 16.75 9.4771 16.75 9.46556 16.75C9.45403 16.75 9.44249 16.75 9.43095 16.75C9.41941 16.75 9.40786 16.75 9.39631 16.75C9.38476 16.75 9.3732 16.75 9.36164 16.75C9.35008 16.75 9.33852 16.75 9.32694 16.75C9.31537 16.75 9.3038 16.75 9.29222 16.75C9.28064 16.75 9.26905 16.75 9.25746 16.75C9.24587 16.75 9.23428 16.75 9.22268 16.75C9.21108 16.75 9.19948 16.75 9.18787 16.75C9.17626 16.75 9.16465 16.75 9.15303 16.75C9.14142 16.75 9.1298 16.75 9.11817 16.75C9.10655 16.75 9.09492 16.75 9.08328 16.75C9.07165 16.75 9.06001 16.75 9.04837 16.75C9.03673 16.75 9.02508 16.75 9.01343 16.75C9.00178 16.75 8.99013 16.75 8.97847 16.75C8.96681 16.75 8.95515 16.75 8.94348 16.75C8.93181 16.75 8.92014 16.75 8.90847 16.75C8.89679 16.75 8.88512 16.75 8.87343 16.75C8.86175 16.75 8.85007 16.75 8.83838 16.75C8.82669 16.75 8.81499 16.75 8.8033 16.75C8.7916 16.75 8.7799 16.75 8.76819 16.75C8.75649 16.75 8.74478 16.75 8.73307 16.75C8.72136 16.75 8.70965 16.75 8.69793 16.75C8.68621 16.75 8.67449 16.75 8.66276 16.75C8.65104 16.75 8.63931 16.75 8.62758 16.75C8.61585 16.75 8.60411 16.75 8.59237 16.75C8.58063 16.75 8.56889 16.75 8.55715 16.75C8.5454 16.75 8.53365 16.75 8.5219 16.75C8.51015 16.75 8.4984 16.75 8.48664 16.75C8.47488 16.75 8.46312 16.75 8.45136 16.75C8.4396 16.75 8.42783 16.75 8.41606 16.75C8.40429 16.75 8.39252 16.75 8.38075 16.75C8.36897 16.75 8.3572 16.75 8.34542 16.75C8.33364 16.75 8.32185 16.75 8.31007 16.75C8.29828 16.75 8.28649 16.75 8.2747 16.75C8.26291 16.75 8.25112 16.75 8.23932 16.75C8.22753 16.75 8.21573 16.75 8.20393 16.75C8.19213 16.75 8.18033 16.75 8.16852 16.75C8.15671 16.75 8.14491 16.75 8.1331 16.75C8.12129 16.75 8.10947 16.75 8.09766 16.75C8.08584 16.75 8.07403 16.75 8.06221 16.75C8.05039 16.75 8.03857 16.75 8.02674 16.75C8.01492 16.75 8.0031 16.75 7.99127 16.75C7.97944 16.75 7.96761 16.75 7.95578 16.75C7.94395 16.75 7.93211 16.75 7.92028 16.75C7.90844 16.75 7.89661 16.75 7.88477 16.75C7.87293 16.75 7.86109 16.75 7.84925 16.75C7.8374 16.75 7.82556 16.75 7.81371 16.75C7.80187 16.75 7.79002 16.75 7.77817 16.75C7.76632 16.75 7.75447 16.75 7.74262 16.75C7.73077 16.75 7.71891 16.75 7.70706 16.75C7.6952 16.75 7.68335 16.75 7.67149 16.75C7.65963 16.75 7.64777 16.75 7.63591 16.75C7.62405 16.75 7.61219 16.75 7.60032 16.75C7.58846 16.75 7.5766 16.75 7.56473 16.75C7.55287 16.75 7.541 16.75 7.52913 16.75C7.51726 16.75 7.5054 16.75 7.49353 16.75C7.48166 16.75 7.46979 16.75 7.45791 16.75C7.44604 16.75 7.43417 16.75 7.4223 16.75C7.41042 16.75 7.39855 16.75 7.38667 16.75C7.3748 16.75 7.36292 16.75 7.35104 16.75C7.33917 16.75 7.32729 16.75 7.31541 16.75C7.30353 16.75 7.29166 16.75 7.27978 16.75C7.2679 16.75 7.25602 16.75 7.24414 16.75C7.23226 16.75 7.22037 16.75 7.20849 16.75C7.19661 16.75 7.18473 16.75 7.17285 16.75C7.16097 16.75 7.14908 16.75 7.1372 16.75C7.12532 16.75 7.11343 16.75 7.10155 16.75C7.08967 16.75 7.07778 16.75 7.0659 16.75C7.05402 16.75 7.04213 16.75 7.03025 16.75C7.01837 16.75 7.00648 16.75 6.9946 16.75C6.98271 16.75 6.97083 16.75 6.95895 16.75C6.94706 16.75 6.93518 16.75 6.92329 16.75C6.91141 16.75 6.89953 16.75 6.88764 16.75C6.87576 16.75 6.86388 16.75 6.85199 16.75C6.84011 16.75 6.82823 16.75 6.81635 16.75C6.80446 16.75 6.79258 16.75 6.7807 16.75C6.76882 16.75 6.75694 16.75 6.74506 16.75C6.73318 16.75 6.7213 16.75 6.70942 16.75C6.69754 16.75 6.68566 16.75 6.67378 16.75C6.6619 16.75 6.65002 16.75 6.63815 16.75C6.62627 16.75 6.61439 16.75 6.60252 16.75C6.59064 16.75 6.57877 16.75 6.56689 16.75C6.55502 16.75 6.54315 16.75 6.53128 16.75C6.5194 16.75 6.50753 16.75 6.49566 16.75C6.48379 16.75 6.47192 16.75 6.46006 16.75C6.44819 16.75 6.43632 16.75 6.42445 16.75C6.41259 16.75 6.40072 16.75 6.38886 16.75C6.377 16.75 6.36514 16.75 6.35327 16.75C6.34141 16.75 6.32955 16.75 6.3177 16.75C6.30584 16.75 6.29398 16.75 6.28212 16.75C6.27027 16.75 6.25841 16.75 6.24656 16.75C6.23471 16.75 6.22286 16.75 6.21101 16.75C6.19916 16.75 6.18731 16.75 6.17547 16.75C6.16362 16.75 6.15177 16.75 6.13993 16.75C6.12809 16.75 6.11625 16.75 6.10441 16.75C6.09257 16.75 6.08073 16.75 6.06889 16.75C6.05706 16.75 6.04523 16.75 6.03339 16.75C6.02156 16.75 6.00973 16.75 5.9979 16.75C5.98608 16.75 5.97425 16.75 5.96242 16.75C5.9506 16.75 5.93878 16.75 5.92696 16.75C5.91514 16.75 5.90332 16.75 5.89151 16.75C5.87969 16.75 5.86788 16.75 5.85607 16.75C5.84426 16.75 5.83245 16.75 5.82064 16.75C5.80883 16.75 5.79703 16.75 5.78523 16.75C5.77343 16.75 5.76163 16.75 5.74983 16.75C5.73804 16.75 5.72624 16.75 5.71445 16.75C5.70266 16.75 5.69087 16.75 5.67908 16.75C5.6673 16.75 5.65551 16.75 5.64373 16.75C5.63195 16.75 5.62017 16.75 5.6084 16.75C5.59662 16.75 5.58485 16.75 5.57308 16.75C5.56131 16.75 5.54955 16.75 5.53778 16.75C5.52602 16.75 5.51426 16.75 5.5025 16.75C5.49074 16.75 5.47899 16.75 5.46723 16.75C5.45548 16.75 5.44373 16.75 5.43199 16.75C5.42024 16.75 5.4085 16.75 5.39676 16.75C5.38502 16.75 5.37328 16.75 5.36155 16.75C5.34982 16.75 5.33809 16.75 5.32636 16.75C5.31464 16.75 5.30292 16.75 5.2912 16.75C5.27948 16.75 5.26776 16.75 5.25605 16.75C5.24434 16.75 5.23263 16.75 5.22092 16.75C5.20922 16.75 5.19752 16.75 5.18582 16.75C5.17412 16.75 5.16242 16.75 5.15073 16.75C5.13904 16.75 5.12736 16.75 5.11567 16.75C5.10399 16.75 5.09231 16.75 5.08064 16.75C5.06896 16.75 5.05729 16.75 5.04562 16.75C5.03395 16.75 5.02229 16.75 5.01063 16.75C4.99897 16.75 4.98731 16.75 4.97566 16.75C4.96401 16.75 4.95236 16.75 4.94072 16.75C4.92908 16.75 4.91744 16.75 4.9058 16.75C4.89417 16.75 4.88254 16.75 4.87091 16.75C4.85928 16.75 4.84766 16.75 4.83604 16.75C4.82443 16.75 4.81281 16.75 4.8012 16.75C4.7896 16.75 4.77799 16.75 4.76639 16.75C4.75479 16.75 4.7432 16.75 4.7316 16.75C4.72001 16.75 4.70843 16.75 4.69685 16.75C4.68526 16.75 4.67369 16.75 4.66211 16.75C4.65054 16.75 4.63897 16.75 4.62741 16.75C4.61585 16.75 4.60429 16.75 4.59274 16.75C4.58118 16.75 4.56964 16.75 4.55809 16.75C4.54655 16.75 4.53501 16.75 4.52348 16.75C4.51195 16.75 4.50042 16.75 4.48889 16.75C4.47737 16.75 4.46585 16.75 4.45434 16.75C4.44283 16.75 4.43132 16.75 4.41982 16.75C4.40831 16.75 4.39682 16.75 4.38532 16.75C4.37383 16.75 4.36234 16.75 4.35086 16.75C4.33938 16.75 4.32791 16.75 4.31644 16.75C4.30497 16.75 4.2935 16.75 4.28204 16.75C4.27058 16.75 4.25913 16.75 4.24768 16.75C4.23623 16.75 4.22479 16.75 4.21335 16.75C4.20191 16.75 4.19048 16.75 4.17905 16.75C4.16763 16.75 4.15621 16.75 4.14479 16.75C4.13338 16.75 4.12197 16.75 4.11057 16.75C4.09917 16.75 4.08777 16.75 4.07638 16.75C4.06499 16.75 4.0536 16.75 4.04222 16.75C4.03085 16.75 4.01947 16.75 4.00811 16.75C3.99674 16.75 3.98538 16.75 3.97402 16.75C3.96267 16.75 3.95132 16.75 3.93998 16.75C3.92864 16.75 3.9173 16.75 3.90597 16.75C3.89464 16.75 3.88332 16.75 3.872 16.75C3.86069 16.75 3.84937 16.75 3.83807 16.75C3.82677 16.75 3.81547 16.75 3.80418 16.75C3.79289 16.75 3.7816 16.75 3.77032 16.75C3.75905 16.75 3.74778 16.75 3.73651 16.75C3.72525 16.75 3.71399 16.75 3.70274 16.75C3.69149 16.75 3.68024 16.75 3.669 16.75C3.65777 16.75 3.64653 16.75 3.63531 16.75C3.62409 16.75 3.61287 16.75 3.60166 16.75C3.59045 16.75 3.57925 16.75 3.56805 16.75C3.55685 16.75 3.54566 16.75 3.53448 16.75C3.5233 16.75 3.51212 16.75 3.50096 16.75C3.48979 16.75 3.47863 16.75 3.46747 16.75C3.45632 16.75 3.44517 16.75 3.43404 16.75C3.4229 16.75 3.41176 16.75 3.40064 16.75C3.38952 16.75 3.3784 16.75 3.36729 16.75C3.35618 16.75 3.34508 16.75 3.33398 16.75L3.33398 18.25C3.34508 18.25 3.35618 18.25 3.36729 18.25C3.3784 18.25 3.38952 18.25 3.40064 18.25C3.41177 18.25 3.4229 18.25 3.43404 18.25C3.44517 18.25 3.45632 18.25 3.46747 18.25C3.47863 18.25 3.48979 18.25 3.50096 18.25C3.51212 18.25 3.5233 18.25 3.53448 18.25C3.54566 18.25 3.55685 18.25 3.56805 18.25C3.57925 18.25 3.59045 18.25 3.60166 18.25C3.61287 18.25 3.62409 18.25 3.63531 18.25C3.64653 18.25 3.65777 18.25 3.669 18.25C3.68024 18.25 3.69149 18.25 3.70274 18.25C3.71399 18.25 3.72525 18.25 3.73651 18.25C3.74778 18.25 3.75905 18.25 3.77032 18.25C3.7816 18.25 3.79289 18.25 3.80418 18.25C3.81547 18.25 3.82677 18.25 3.83807 18.25C3.84937 18.25 3.86069 18.25 3.872 18.25C3.88332 18.25 3.89464 18.25 3.90597 18.25C3.9173 18.25 3.92864 18.25 3.93998 18.25C3.95132 18.25 3.96267 18.25 3.97402 18.25C3.98538 18.25 3.99674 18.25 4.00811 18.25C4.01947 18.25 4.03085 18.25 4.04222 18.25C4.0536 18.25 4.06499 18.25 4.07638 18.25C4.08777 18.25 4.09917 18.25 4.11057 18.25C4.12197 18.25 4.13338 18.25 4.14479 18.25C4.15621 18.25 4.16763 18.25 4.17906 18.25C4.19048 18.25 4.20191 18.25 4.21335 18.25C4.22479 18.25 4.23623 18.25 4.24768 18.25C4.25913 18.25 4.27058 18.25 4.28204 18.25C4.2935 18.25 4.30497 18.25 4.31644 18.25C4.32791 18.25 4.33938 18.25 4.35086 18.25C4.36235 18.25 4.37383 18.25 4.38532 18.25C4.39682 18.25 4.40831 18.25 4.41982 18.25C4.43132 18.25 4.44283 18.25 4.45434 18.25C4.46585 18.25 4.47737 18.25 4.48889 18.25C4.50042 18.25 4.51195 18.25 4.52348 18.25C4.53501 18.25 4.54655 18.25 4.55809 18.25C4.56964 18.25 4.58119 18.25 4.59274 18.25C4.60429 18.25 4.61585 18.25 4.62741 18.25C4.63897 18.25 4.65054 18.25 4.66211 18.25C4.67369 18.25 4.68526 18.25 4.69685 18.25C4.70843 18.25 4.72001 18.25 4.7316 18.25C4.7432 18.25 4.75479 18.25 4.76639 18.25C4.77799 18.25 4.7896 18.25 4.8012 18.25C4.81281 18.25 4.82443 18.25 4.83604 18.25C4.84766 18.25 4.85928 18.25 4.87091 18.25C4.88254 18.25 4.89417 18.25 4.9058 18.25C4.91744 18.25 4.92908 18.25 4.94072 18.25C4.95236 18.25 4.96401 18.25 4.97566 18.25C4.98731 18.25 4.99897 18.25 5.01063 18.25C5.02229 18.25 5.03395 18.25 5.04562 18.25C5.05729 18.25 5.06896 18.25 5.08064 18.25C5.09231 18.25 5.10399 18.25 5.11567 18.25C5.12736 18.25 5.13904 18.25 5.15073 18.25C5.16243 18.25 5.17412 18.25 5.18582 18.25C5.19752 18.25 5.20922 18.25 5.22092 18.25C5.23263 18.25 5.24434 18.25 5.25605 18.25C5.26776 18.25 5.27948 18.25 5.2912 18.25C5.30292 18.25 5.31464 18.25 5.32636 18.25C5.33809 18.25 5.34982 18.25 5.36155 18.25C5.37329 18.25 5.38502 18.25 5.39676 18.25C5.4085 18.25 5.42024 18.25 5.43199 18.25C5.44373 18.25 5.45548 18.25 5.46723 18.25C5.47899 18.25 5.49074 18.25 5.5025 18.25C5.51426 18.25 5.52602 18.25 5.53778 18.25C5.54955 18.25 5.56131 18.25 5.57308 18.25C5.58485 18.25 5.59662 18.25 5.6084 18.25C5.62017 18.25 5.63195 18.25 5.64373 18.25C5.65551 18.25 5.6673 18.25 5.67908 18.25C5.69087 18.25 5.70266 18.25 5.71445 18.25C5.72624 18.25 5.73804 18.25 5.74983 18.25C5.76163 18.25 5.77343 18.25 5.78523 18.25C5.79703 18.25 5.80884 18.25 5.82064 18.25C5.83245 18.25 5.84426 18.25 5.85607 18.25C5.86788 18.25 5.87969 18.25 5.89151 18.25C5.90332 18.25 5.91514 18.25 5.92696 18.25C5.93878 18.25 5.9506 18.25 5.96243 18.25C5.97425 18.25 5.98608 18.25 5.9979 18.25C6.00973 18.25 6.02156 18.25 6.03339 18.25C6.04523 18.25 6.05706 18.25 6.0689 18.25C6.08073 18.25 6.09257 18.25 6.10441 18.25C6.11625 18.25 6.12809 18.25 6.13993 18.25C6.15177 18.25 6.16362 18.25 6.17547 18.25C6.18731 18.25 6.19916 18.25 6.21101 18.25C6.22286 18.25 6.23471 18.25 6.24656 18.25C6.25842 18.25 6.27027 18.25 6.28212 18.25C6.29398 18.25 6.30584 18.25 6.3177 18.25C6.32955 18.25 6.34141 18.25 6.35327 18.25C6.36514 18.25 6.377 18.25 6.38886 18.25C6.40072 18.25 6.41259 18.25 6.42446 18.25C6.43632 18.25 6.44819 18.25 6.46006 18.25C6.47192 18.25 6.48379 18.25 6.49566 18.25C6.50753 18.25 6.5194 18.25 6.53128 18.25C6.54315 18.25 6.55502 18.25 6.5669 18.25C6.57877 18.25 6.59064 18.25 6.60252 18.25C6.61439 18.25 6.62627 18.25 6.63815 18.25C6.65002 18.25 6.6619 18.25 6.67378 18.25C6.68566 18.25 6.69754 18.25 6.70942 18.25C6.7213 18.25 6.73318 18.25 6.74506 18.25C6.75694 18.25 6.76882 18.25 6.7807 18.25C6.79258 18.25 6.80446 18.25 6.81635 18.25C6.82823 18.25 6.84011 18.25 6.85199 18.25C6.86388 18.25 6.87576 18.25 6.88764 18.25C6.89953 18.25 6.91141 18.25 6.92329 18.25C6.93518 18.25 6.94706 18.25 6.95895 18.25C6.97083 18.25 6.98271 18.25 6.9946 18.25C7.00648 18.25 7.01837 18.25 7.03025 18.25C7.04213 18.25 7.05402 18.25 7.0659 18.25C7.07778 18.25 7.08967 18.25 7.10155 18.25C7.11343 18.25 7.12532 18.25 7.1372 18.25C7.14908 18.25 7.16097 18.25 7.17285 18.25C7.18473 18.25 7.19661 18.25 7.20849 18.25C7.22038 18.25 7.23226 18.25 7.24414 18.25C7.25602 18.25 7.2679 18.25 7.27978 18.25C7.29166 18.25 7.30353 18.25 7.31541 18.25C7.32729 18.25 7.33917 18.25 7.35104 18.25C7.36292 18.25 7.3748 18.25 7.38667 18.25C7.39855 18.25 7.41042 18.25 7.4223 18.25C7.43417 18.25 7.44604 18.25 7.45791 18.25C7.46979 18.25 7.48166 18.25 7.49353 18.25C7.5054 18.25 7.51726 18.25 7.52913 18.25C7.541 18.25 7.55287 18.25 7.56473 18.25C7.5766 18.25 7.58846 18.25 7.60033 18.25C7.61219 18.25 7.62405 18.25 7.63591 18.25C7.64777 18.25 7.65963 18.25 7.67149 18.25C7.68335 18.25 7.6952 18.25 7.70706 18.25C7.71891 18.25 7.73077 18.25 7.74262 18.25C7.75447 18.25 7.76632 18.25 7.77817 18.25C7.79002 18.25 7.80187 18.25 7.81371 18.25C7.82556 18.25 7.8374 18.25 7.84925 18.25C7.86109 18.25 7.87293 18.25 7.88477 18.25C7.89661 18.25 7.90844 18.25 7.92028 18.25C7.93211 18.25 7.94395 18.25 7.95578 18.25C7.96761 18.25 7.97944 18.25 7.99127 18.25C8.0031 18.25 8.01492 18.25 8.02674 18.25C8.03857 18.25 8.05039 18.25 8.06221 18.25C8.07403 18.25 8.08584 18.25 8.09766 18.25C8.10947 18.25 8.12129 18.25 8.1331 18.25C8.14491 18.25 8.15671 18.25 8.16852 18.25C8.18033 18.25 8.19213 18.25 8.20393 18.25C8.21573 18.25 8.22753 18.25 8.23932 18.25C8.25112 18.25 8.26291 18.25 8.2747 18.25C8.28649 18.25 8.29828 18.25 8.31007 18.25C8.32185 18.25 8.33364 18.25 8.34542 18.25C8.3572 18.25 8.36897 18.25 8.38075 18.25C8.39252 18.25 8.40429 18.25 8.41606 18.25C8.42783 18.25 8.4396 18.25 8.45136 18.25C8.46312 18.25 8.47488 18.25 8.48664 18.25C8.4984 18.25 8.51015 18.25 8.5219 18.25C8.53365 18.25 8.5454 18.25 8.55715 18.25C8.56889 18.25 8.58063 18.25 8.59237 18.25C8.60411 18.25 8.61585 18.25 8.62758 18.25C8.63931 18.25 8.65104 18.25 8.66276 18.25C8.67449 18.25 8.68621 18.25 8.69793 18.25C8.70965 18.25 8.72136 18.25 8.73307 18.25C8.74478 18.25 8.75649 18.25 8.76819 18.25C8.7799 18.25 8.7916 18.25 8.8033 18.25C8.81499 18.25 8.82669 18.25 8.83838 18.25C8.85007 18.25 8.86175 18.25 8.87343 18.25C8.88512 18.25 8.89679 18.25 8.90847 18.25C8.92014 18.25 8.93181 18.25 8.94348 18.25C8.95515 18.25 8.96681 18.25 8.97847 18.25C8.99013 18.25 9.00178 18.25 9.01343 18.25C9.02508 18.25 9.03673 18.25 9.04837 18.25C9.06001 18.25 9.07165 18.25 9.08328 18.25C9.09492 18.25 9.10655 18.25 9.11817 18.25C9.1298 18.25 9.14142 18.25 9.15303 18.25C9.16465 18.25 9.17626 18.25 9.18787 18.25C9.19948 18.25 9.21108 18.25 9.22268 18.25C9.23428 18.25 9.24587 18.25 9.25746 18.25C9.26905 18.25 9.28064 18.25 9.29222 18.25C9.3038 18.25 9.31537 18.25 9.32694 18.25C9.33852 18.25 9.35008 18.25 9.36164 18.25C9.3732 18.25 9.38476 18.25 9.39631 18.25C9.40786 18.25 9.41941 18.25 9.43095 18.25C9.44249 18.25 9.45403 18.25 9.46556 18.25C9.4771 18.25 9.48862 18.25 9.50014 18.25C9.51167 18.25 9.52318 18.25 9.53469 18.25C9.54621 18.25 9.55771 18.25 9.56921 18.25C9.58071 18.25 9.59221 18.25 9.6037 18.25C9.61519 18.25 9.62668 18.25 9.63816 18.25C9.64964 18.25 9.66111 18.25 9.67258 18.25C9.68405 18.25 9.69551 18.25 9.70697 18.25C9.71843 18.25 9.72988 18.25 9.74133 18.25C9.75277 18.25 9.76422 18.25 9.77565 18.25C9.78709 18.25 9.79852 18.25 9.80994 18.25C9.82136 18.25 9.83278 18.25 9.8442 18.25C9.85561 18.25 9.86702 18.25 9.87842 18.25C9.88982 18.25 9.90121 18.25 9.9126 18.25C9.92399 18.25 9.93537 18.25 9.94675 18.25C9.95813 18.25 9.9695 18.25 9.98086 18.25C9.99223 18.25 10.0036 18.25 10.0149 18.25C10.0263 18.25 10.0376 18.25 10.049 18.25C10.0603 18.25 10.0717 18.25 10.083 18.25C10.0943 18.25 10.1056 18.25 10.1169 18.25C10.1283 18.25 10.1396 18.25 10.1509 18.25C10.1622 18.25 10.1735 18.25 10.1848 18.25C10.196 18.25 10.2073 18.25 10.2186 18.25C10.2299 18.25 10.2412 18.25 10.2524 18.25C10.2637 18.25 10.2749 18.25 10.2862 18.25C10.2974 18.25 10.3087 18.25 10.3199 18.25C10.3311 18.25 10.3424 18.25 10.3536 18.25C10.3648 18.25 10.376 18.25 10.3872 18.25C10.3985 18.25 10.4097 18.25 10.4208 18.25C10.432 18.25 10.4432 18.25 10.4544 18.25C10.4656 18.25 10.4768 18.25 10.4879 18.25C10.4991 18.25 10.5103 18.25 10.5214 18.25C10.5326 18.25 10.5437 18.25 10.5548 18.25C10.566 18.25 10.5771 18.25 10.5882 18.25C10.5993 18.25 10.6105 18.25 10.6216 18.25C10.6327 18.25 10.6438 18.25 10.6549 18.25C10.666 18.25 10.677 18.25 10.6881 18.25C10.6992 18.25 10.7103 18.25 10.7213 18.25C10.7324 18.25 10.7434 18.25 10.7545 18.25C10.7655 18.25 10.7766 18.25 10.7876 18.25C10.7986 18.25 10.8097 18.25 10.8207 18.25C10.8317 18.25 10.8427 18.25 10.8537 18.25C10.8647 18.25 10.8757 18.25 10.8867 18.25C10.8977 18.25 10.9086 18.25 10.9196 18.25C10.9306 18.25 10.9415 18.25 10.9525 18.25C10.9634 18.25 10.9744 18.25 10.9853 18.25C10.9962 18.25 11.0072 18.25 11.0181 18.25C11.029 18.25 11.0399 18.25 11.0508 18.25C11.0617 18.25 11.0726 18.25 11.0835 18.25C11.0944 18.25 11.1052 18.25 11.1161 18.25C11.127 18.25 11.1378 18.25 11.1487 18.25C11.1595 18.25 11.1704 18.25 11.1812 18.25C11.192 18.25 11.2029 18.25 11.2137 18.25C11.2245 18.25 11.2353 18.25 11.2461 18.25C11.2569 18.25 11.2677 18.25 11.2785 18.25C11.2893 18.25 11.3 18.25 11.3108 18.25C11.3215 18.25 11.3323 18.25 11.343 18.25C11.3538 18.25 11.3645 18.25 11.3752 18.25C11.386 18.25 11.3967 18.25 11.4074 18.25C11.4181 18.25 11.4288 18.25 11.4395 18.25C11.4502 18.25 11.4609 18.25 11.4715 18.25C11.4822 18.25 11.4929 18.25 11.5035 18.25C11.5142 18.25 11.5248 18.25 11.5354 18.25C11.5461 18.25 11.5567 18.25 11.5673 18.25C11.5779 18.25 11.5885 18.25 11.5991 18.25C11.6097 18.25 11.6203 18.25 11.6309 18.25C11.6415 18.25 11.652 18.25 11.6626 18.25C11.6731 18.25 11.6837 18.25 11.6942 18.25C11.7048 18.25 11.7153 18.25 11.7258 18.25C11.7363 18.25 11.7468 18.25 11.7573 18.25C11.7678 18.25 11.7783 18.25 11.7888 18.25C11.7993 18.25 11.8097 18.25 11.8202 18.25C11.8306 18.25 11.8411 18.25 11.8515 18.25C11.862 18.25 11.8724 18.25 11.8828 18.25C11.8932 18.25 11.9036 18.25 11.914 18.25C11.9244 18.25 11.9348 18.25 11.9452 18.25C11.9556 18.25 11.9659 18.25 11.9763 18.25C11.9866 18.25 11.997 18.25 12.0073 18.25C12.0176 18.25 12.028 18.25 12.0383 18.25C12.0486 18.25 12.0589 18.25 12.0692 18.25C12.0795 18.25 12.0897 18.25 12.1 18.25C12.1103 18.25 12.1205 18.25 12.1308 18.25C12.141 18.25 12.1513 18.25 12.1615 18.25C12.1717 18.25 12.1819 18.25 12.1921 18.25C12.2023 18.25 12.2125 18.25 12.2227 18.25C12.2329 18.25 12.2431 18.25 12.2532 18.25C12.2634 18.25 12.2735 18.25 12.2837 18.25C12.2938 18.25 12.3039 18.25 12.314 18.25C12.3242 18.25 12.3343 18.25 12.3444 18.25C12.3544 18.25 12.3645 18.25 12.3746 18.25C12.3847 18.25 12.3947 18.25 12.4048 18.25C12.4148 18.25 12.4249 18.25 12.4349 18.25C12.4449 18.25 12.4549 18.25 12.4649 18.25C12.4749 18.25 12.4849 18.25 12.4949 18.25C12.5049 18.25 12.5148 18.25 12.5248 18.25C12.5347 18.25 12.5447 18.25 12.5546 18.25C12.5645 18.25 12.5744 18.25 12.5843 18.25C12.5943 18.25 12.6041 18.25 12.614 18.25C12.6239 18.25 12.6338 18.25 12.6436 18.25C12.6535 18.25 12.6633 18.25 12.6732 18.25C12.683 18.25 12.6928 18.25 12.7026 18.25C12.7125 18.25 12.7223 18.25 12.732 18.25C12.7418 18.25 12.7516 18.25 12.7614 18.25C12.7711 18.25 12.7809 18.25 12.7906 18.25C12.8003 18.25 12.8101 18.25 12.8198 18.25C12.8295 18.25 12.8392 18.25 12.8489 18.25C12.8586 18.25 12.8682 18.25 12.8779 18.25C12.8875 18.25 12.8972 18.25 12.9068 18.25C12.9165 18.25 12.9261 18.25 12.9357 18.25C12.9453 18.25 12.9549 18.25 12.9645 18.25C12.9741 18.25 12.9836 18.25 12.9932 18.25C13.0028 18.25 13.0123 18.25 13.0218 18.25C13.0314 18.25 13.0409 18.25 13.0504 18.25C13.0599 18.25 13.0694 18.25 13.0789 18.25C13.0884 18.25 13.0978 18.25 13.1073 18.25C13.1167 18.25 13.1262 18.25 13.1356 18.25C13.145 18.25 13.1544 18.25 13.1638 18.25C13.1732 18.25 13.1826 18.25 13.192 18.25C13.2014 18.25 13.2107 18.25 13.2201 18.25C13.2294 18.25 13.2388 18.25 13.2481 18.25C13.2574 18.25 13.2667 18.25 13.276 18.25C13.2853 18.25 13.2946 18.25 13.3039 18.25C13.3131 18.25 13.3224 18.25 13.3316 18.25C13.3408 18.25 13.3501 18.25 13.3593 18.25C13.3685 18.25 13.3777 18.25 13.3869 18.25C13.3961 18.25 13.4052 18.25 13.4144 18.25C13.4235 18.25 13.4327 18.25 13.4418 18.25C13.4509 18.25 13.46 18.25 13.4691 18.25C13.4782 18.25 13.4873 18.25 13.4964 18.25C13.5055 18.25 13.5145 18.25 13.5236 18.25C13.5326 18.25 13.5416 18.25 13.5506 18.25C13.5597 18.25 13.5687 18.25 13.5776 18.25C13.5866 18.25 13.5956 18.25 13.6046 18.25C13.6135 18.25 13.6224 18.25 13.6314 18.25C13.6403 18.25 13.6492 18.25 13.6581 18.25C13.667 18.25 13.6759 18.25 13.6848 18.25C13.6936 18.25 13.7025 18.25 13.7113 18.25C13.7202 18.25 13.729 18.25 13.7378 18.25C13.7466 18.25 13.7554 18.25 13.7642 18.25C13.773 18.25 13.7817 18.25 13.7905 18.25C13.7992 18.25 13.8079 18.25 13.8167 18.25C13.8254 18.25 13.8341 18.25 13.8428 18.25C13.8515 18.25 13.8601 18.25 13.8688 18.25C13.8775 18.25 13.8861 18.25 13.8947 18.25C13.9034 18.25 13.912 18.25 13.9206 18.25C13.9292 18.25 13.9377 18.25 13.9463 18.25C13.9549 18.25 13.9634 18.25 13.972 18.25C13.9805 18.25 13.989 18.25 13.9975 18.25C14.006 18.25 14.0145 18.25 14.023 18.25C14.0315 18.25 14.0399 18.25 14.0484 18.25C14.0568 18.25 14.0652 18.25 14.0736 18.25C14.0821 18.25 14.0905 18.25 14.0988 18.25C14.1072 18.25 14.1156 18.25 14.1239 18.25C14.1323 18.25 14.1406 18.25 14.1489 18.25C14.1572 18.25 14.1655 18.25 14.1738 18.25C14.1821 18.25 14.1904 18.25 14.1986 18.25C14.2069 18.25 14.2151 18.25 14.2233 18.25C14.2315 18.25 14.2397 18.25 14.2479 18.25C14.2561 18.25 14.2643 18.25 14.2724 18.25C14.2806 18.25 14.2887 18.25 14.2968 18.25C14.305 18.25 14.3131 18.25 14.3212 18.25C14.3292 18.25 14.3373 18.25 14.3454 18.25C14.3534 18.25 14.3615 18.25 14.3695 18.25C14.3775 18.25 14.3855 18.25 14.3935 18.25C14.4015 18.25 14.4095 18.25 14.4174 18.25C14.4254 18.25 14.4333 18.25 14.4412 18.25C14.4492 18.25 14.4571 18.25 14.4649 18.25C14.4728 18.25 14.4807 18.25 14.4886 18.25C14.4964 18.25 14.5042 18.25 14.5121 18.25C14.5199 18.25 14.5277 18.25 14.5355 18.25C14.5433 18.25 14.551 18.25 14.5588 18.25C14.5665 18.25 14.5743 18.25 14.582 18.25C14.5897 18.25 14.5974 18.25 14.6051 18.25C14.6128 18.25 14.6204 18.25 14.6281 18.25C14.6357 18.25 14.6433 18.25 14.651 18.25C14.6586 18.25 14.6662 18.25 14.6737 18.25C14.6813 18.25 14.6889 18.25 14.6964 18.25C14.704 18.25 14.7115 18.25 14.719 18.25C14.7265 18.25 14.734 18.25 14.7414 18.25C14.7489 18.25 14.7564 18.25 14.7638 18.25C14.7712 18.25 14.7787 18.25 14.7861 18.25C14.7935 18.25 14.8008 18.25 14.8082 18.25C14.8156 18.25 14.8229 18.25 14.8302 18.25C14.8376 18.25 14.8449 18.25 14.8522 18.25C14.8595 18.25 14.8667 18.25 14.874 18.25C14.8812 18.25 14.8885 18.25 14.8957 18.25C14.9029 18.25 14.9101 18.25 14.9173 18.25C14.9245 18.25 14.9316 18.25 14.9388 18.25C14.9459 18.25 14.953 18.25 14.9602 18.25C14.9673 18.25 14.9744 18.25 14.9814 18.25C14.9885 18.25 14.9955 18.25 15.0026 18.25C15.0096 18.25 15.0166 18.25 15.0236 18.25C15.0306 18.25 15.0376 18.25 15.0446 18.25C15.0515 18.25 15.0585 18.25 15.0654 18.25C15.0723 18.25 15.0792 18.25 15.0861 18.25C15.093 18.25 15.0998 18.25 15.1067 18.25C15.1135 18.25 15.1203 18.25 15.1271 18.25C15.134 18.25 15.1407 18.25 15.1475 18.25C15.1543 18.25 15.161 18.25 15.1678 18.25C15.1745 18.25 15.1812 18.25 15.1879 18.25C15.1946 18.25 15.2013 18.25 15.2079 18.25C15.2146 18.25 15.2212 18.25 15.2278 18.25C15.2344 18.25 15.241 18.25 15.2476 18.25C15.2542 18.25 15.2607 18.25 15.2673 18.25C15.2738 18.25 15.2803 18.25 15.2868 18.25C15.2933 18.25 15.2998 18.25 15.3062 18.25C15.3127 18.25 15.3191 18.25 15.3256 18.25C15.332 18.25 15.3384 18.25 15.3448 18.25C15.3511 18.25 15.3575 18.25 15.3638 18.25C15.3702 18.25 15.3765 18.25 15.3828 18.25C15.3891 18.25 15.3954 18.25 15.4016 18.25C15.4079 18.25 15.4141 18.25 15.4203 18.25C15.4266 18.25 15.4327 18.25 15.4389 18.25C15.4451 18.25 15.4513 18.25 15.4574 18.25C15.4635 18.25 15.4697 18.25 15.4758 18.25C15.4818 18.25 15.4879 18.25 15.494 18.25C15.5 18.25 15.5061 18.25 15.5121 18.25C15.5181 18.25 15.5241 18.25 15.5301 18.25C15.536 18.25 15.542 18.25 15.5479 18.25C15.5539 18.25 15.5598 18.25 15.5657 18.25C15.5716 18.25 15.5774 18.25 15.5833 18.25C15.5891 18.25 15.595 18.25 15.6008 18.25C15.6066 18.25 15.6124 18.25 15.6181 18.25C15.6239 18.25 15.6296 18.25 15.6354 18.25C15.6411 18.25 15.6468 18.25 15.6525 18.25C15.6582 18.25 15.6638 18.25 15.6695 18.25C15.6751 18.25 15.6807 18.25 15.6863 18.25C15.6919 18.25 15.6975 18.25 15.703 18.25C15.7086 18.25 15.7141 18.25 15.7196 18.25C15.7251 18.25 15.7306 18.25 15.7361 18.25C15.7416 18.25 15.747 18.25 15.7525 18.25C15.7579 18.25 15.7633 18.25 15.7687 18.25C15.774 18.25 15.7794 18.25 15.7848 18.25C15.7901 18.25 15.7954 18.25 15.8007 18.25C15.806 18.25 15.8113 18.25 15.8165 18.25C15.8218 18.25 15.827 18.25 15.8322 18.25C15.8374 18.25 15.8426 18.25 15.8478 18.25C15.853 18.25 15.8581 18.25 15.8632 18.25C15.8683 18.25 15.8734 18.25 15.8785 18.25C15.8836 18.25 15.8887 18.25 15.8937 18.25C15.8987 18.25 15.9037 18.25 15.9087 18.25C15.9137 18.25 15.9187 18.25 15.9236 18.25C15.9286 18.25 15.9335 18.25 15.9384 18.25C15.9433 18.25 15.9482 18.25 15.953 18.25C15.9579 18.25 15.9627 18.25 15.9675 18.25C15.9723 18.25 15.9771 18.25 15.9819 18.25C15.9866 18.25 15.9914 18.25 15.9961 18.25C16.0008 18.25 16.0055 18.25 16.0102 18.25C16.0149 18.25 16.0195 18.25 16.0241 18.25C16.0288 18.25 16.0334 18.25 16.038 18.25C16.0425 18.25 16.0471 18.25 16.0516 18.25C16.0562 18.25 16.0607 18.25 16.0652 18.25C16.0697 18.25 16.0741 18.25 16.0786 18.25C16.083 18.25 16.0875 18.25 16.0918 18.25C16.0962 18.25 16.1006 18.25 16.105 18.25C16.1093 18.25 16.1137 18.25 16.118 18.25C16.1223 18.25 16.1265 18.25 16.1308 18.25C16.1351 18.25 16.1393 18.25 16.1435 18.25C16.1477 18.25 16.1519 18.25 16.1561 18.25C16.1602 18.25 16.1644 18.25 16.1685 18.25C16.1726 18.25 16.1767 18.25 16.1808 18.25C16.1849 18.25 16.1889 18.25 16.1929 18.25C16.197 18.25 16.201 18.25 16.2049 18.25C16.2089 18.25 16.2129 18.25 16.2168 18.25C16.2207 18.25 16.2246 18.25 16.2285 18.25C16.2324 18.25 16.2362 18.25 16.2401 18.25C16.2439 18.25 16.2477 18.25 16.2515 18.25C16.2553 18.25 16.259 18.25 16.2628 18.25C16.2665 18.25 16.2702 18.25 16.2739 18.25C16.2776 18.25 16.2813 18.25 16.2849 18.25C16.2885 18.25 16.2921 18.25 16.2957 18.25C16.2993 18.25 16.3029 18.25 16.3064 18.25C16.31 18.25 16.3135 18.25 16.317 18.25C16.3205 18.25 16.3239 18.25 16.3274 18.25C16.3308 18.25 16.3342 18.25 16.3376 18.25C16.341 18.25 16.3444 18.25 16.3477 18.25C16.3511 18.25 16.3544 18.25 16.3577 18.25C16.361 18.25 16.3643 18.25 16.3675 18.25C16.3708 18.25 16.374 18.25 16.3772 18.25C16.3804 18.25 16.3835 18.25 16.3867 18.25C16.3898 18.25 16.393 18.25 16.396 18.25C16.3991 18.25 16.4022 18.25 16.4053 18.25C16.4083 18.25 16.4113 18.25 16.4143 18.25C16.4173 18.25 16.4203 18.25 16.4232 18.25C16.4262 18.25 16.4291 18.25 16.432 18.25C16.4349 18.25 16.4377 18.25 16.4406 18.25C16.4434 18.25 16.4462 18.25 16.449 18.25C16.4518 18.25 16.4546 18.25 16.4573 18.25C16.4601 18.25 16.4628 18.25 16.4655 18.25C16.4682 18.25 16.4708 18.25 16.4735 18.25C16.4761 18.25 16.4787 18.25 16.4813 18.25C16.4839 18.25 16.4864 18.25 16.489 18.25C16.4915 18.25 16.494 18.25 16.4965 18.25C16.499 18.25 16.5014 18.25 16.5039 18.25C16.5063 18.25 16.5087 18.25 16.5111 18.25C16.5135 18.25 16.5158 18.25 16.5181 18.25C16.5205 18.25 16.5228 18.25 16.525 18.25C16.5273 18.25 16.5296 18.25 16.5318 18.25C16.534 18.25 16.5362 18.25 16.5384 18.25C16.5405 18.25 16.5427 18.25 16.5448 18.25C16.5469 18.25 16.549 18.25 16.5511 18.25C16.5531 18.25 16.5551 18.25 16.5572 18.25C16.5592 18.25 16.5611 18.25 16.5631 18.25C16.5651 18.25 16.567 18.25 16.5689 18.25C16.5708 18.25 16.5727 18.25 16.5745 18.25C16.5764 18.25 16.5782 18.25 16.58 18.25C16.5818 18.25 16.5835 18.25 16.5853 18.25C16.587 18.25 16.5887 18.25 16.5904 18.25C16.5921 18.25 16.5938 18.25 16.5954 18.25C16.597 18.25 16.5986 18.25 16.6002 18.25C16.6018 18.25 16.6034 18.25 16.6049 18.25C16.6064 18.25 16.6079 18.25 16.6094 18.25C16.6108 18.25 16.6123 18.25 16.6137 18.25C16.6151 18.25 16.6165 18.25 16.6179 18.25C16.6192 18.25 16.6206 18.25 16.6219 18.25C16.6232 18.25 16.6244 18.25 16.6257 18.25C16.6269 18.25 16.6282 18.25 16.6294 18.25C16.6306 18.25 16.6317 18.25 16.6329 18.25C16.634 18.25 16.6351 18.25 16.6362 18.25C16.6373 18.25 16.6383 18.25 16.6394 18.25C16.6404 18.25 16.6414 18.25 16.6424 18.25C16.6433 18.25 16.6443 18.25 16.6452 18.25C16.6461 18.25 16.647 18.25 16.6479 18.25C16.6487 18.25 16.6495 18.25 16.6503 18.25C16.6512 18.25 16.6519 18.25 16.6527 18.25C16.6534 18.25 16.6541 18.25 16.6548 18.25C16.6555 18.25 16.6562 18.25 16.6568 18.25C16.6574 18.25 16.6581 18.25 16.6586 18.25C16.6592 18.25 16.6598 18.25 16.6603 18.25C16.6608 18.25 16.6613 18.25 16.6617 18.25C16.6622 18.25 16.6626 18.25 16.663 18.25C16.6635 18.25 16.6638 18.25 16.6642 18.25C16.6645 18.25 16.6648 18.25 16.6651 18.25C16.6654 18.25 16.6657 18.25 16.6659 18.25C16.6662 18.25 16.6664 18.25 16.6665 18.25C16.6667 18.25 16.6669 18.25 16.667 18.25C16.6671 18.25 16.6672 18.25 16.6672 18.25C16.6673 18.25 16.6673 18.25 16.6673 17.5Z" fill="#2B2F31"/>
</svg>
