<svg width="96" height="24" viewBox="0 0 96 24" fill="none" xmlns="http://www.w3.org/2000/svg">
<path d="M24 0H0V24H24V0Z" fill="url(#paint0_linear_2144_14272)"/>
<path d="M15.4668 5.83565L12.0726 14.119H11.9274L8.53218 5.83565H5.31836V18.1643H7.84588V10.11H7.94851L11.1395 18.1031H12.8605L16.0515 10.1401H16.1531V14.372H18.6816V5.83565H15.4668Z" fill="white"/>
<path d="M18.6816 15.6358H16.1531V18.1644H18.6816V15.6358Z" fill="white"/>
<path d="M33.6788 0L36.4717 6.81434H36.5909L39.3838 0H42.0285V10.1422H39.9489V3.54039H39.8649L37.2399 10.0914H35.8238L33.1988 3.51551H33.1148V10.1412H31.0352V0H33.6798H33.6788Z" fill="white"/>
<path d="M42.469 6.37376C42.469 4.02663 43.9204 2.43735 46.1587 2.43735C48.1689 2.43735 49.7343 3.71458 49.7343 6.30016V6.87968H44.5549V6.88486C44.5549 8.01903 45.2236 8.71674 46.2779 8.71674C46.9808 8.71674 47.5261 8.41506 47.7386 7.83553L49.6897 7.96409C49.3922 9.37506 48.1243 10.2915 46.2426 10.2915C43.9007 10.2915 42.469 8.7862 42.469 6.3748V6.37376ZM47.748 5.57134C47.7428 4.66525 47.1093 4.01108 46.1929 4.01108C45.2764 4.01108 44.5984 4.70465 44.5538 5.57134H47.748Z" fill="white"/>
<path d="M54.1797 4.11988H52.749V7.80437C52.749 8.38908 53.0414 8.54666 53.4623 8.54666C53.6603 8.54666 53.8832 8.4969 53.9869 8.4772L54.3186 10.0468C54.1061 10.1163 53.7194 10.2251 53.1751 10.2448C51.6449 10.3091 50.63 9.57094 50.6393 8.08117V4.11988H49.5995V2.53474H50.6393V0.713226H52.749V2.53577H54.1797V4.12092V4.11988Z" fill="white"/>
<path d="M54.2192 8.01697C54.2192 6.31883 55.5711 5.81291 57.0764 5.67503C58.3982 5.54648 58.9186 5.4822 58.9186 4.99183V4.96177C58.9186 4.33766 58.5081 3.97585 57.7896 3.97585C57.0318 3.97585 56.5808 4.34699 56.4378 4.85291L54.4867 4.69429C54.779 3.30717 55.9775 2.43633 57.799 2.43633C59.493 2.43633 61.0273 3.19935 61.0273 5.01153V10.1422H59.0264V9.0879H58.9673C58.5962 9.79598 57.8684 10.2863 56.7436 10.2863C55.2922 10.2863 54.2181 9.52332 54.2181 8.01801L54.2192 8.01697ZM58.9331 7.42293V6.61533C58.6802 6.78328 57.9275 6.89317 57.4672 6.95745C56.7249 7.06112 56.2346 7.35347 56.2346 7.94751C56.2346 8.54155 56.7 8.82872 57.349 8.82872C58.2748 8.82872 58.9342 8.21913 58.9342 7.4219L58.9331 7.42293Z" fill="white"/>
<path d="M63.8005 10.1422H61.6908V0H63.8005V10.1422Z" fill="white"/>
<path d="M31.0352 13.7096H35.096C37.3343 13.7096 38.4632 14.7888 38.4632 16.3097C38.4632 17.503 37.6857 18.2504 36.6314 18.4889V18.5884C37.7852 18.6434 38.8603 19.5495 38.8603 21.0496C38.8603 22.6637 37.6473 23.8529 35.3686 23.8529H31.0352V13.7107V13.7096ZM34.7694 17.9539C35.6454 17.9539 36.2996 17.4688 36.2996 16.6663C36.2996 15.9334 35.7595 15.443 34.8088 15.443H33.1801V17.9539H34.7694ZM34.928 22.0987C36.1265 22.0987 36.6459 21.598 36.6459 20.836C36.6459 19.9994 36.0073 19.4053 34.9768 19.4053H33.1791V22.0987H34.927H34.928Z" fill="white"/>
<path d="M41.3442 23.8507H39.2345V13.7085H41.3442V23.8507Z" fill="white"/>
<path d="M41.7454 20.0781C41.7454 17.7206 43.1812 16.1458 45.4889 16.1458C47.7967 16.1458 49.2325 17.7206 49.2325 20.0781C49.2325 22.4356 47.7967 24 45.4889 24C43.1812 24 41.7454 22.42 41.7454 20.0781ZM47.0886 20.0636C47.0886 18.7366 46.5443 17.7558 45.4993 17.7558C44.4543 17.7558 43.8903 18.7366 43.8903 20.0636C43.8903 21.3905 44.4346 22.3661 45.4993 22.3661C46.564 22.3661 47.0886 21.3905 47.0886 20.0636Z" fill="white"/>
<path d="M49.3269 20.0781C49.3269 17.7455 50.7534 16.1458 53.0612 16.1458C55.0465 16.1458 56.3787 17.2997 56.4678 19.0579H54.4773C54.3633 18.3001 53.8688 17.79 53.0954 17.79C52.1146 17.79 51.4708 18.6121 51.4708 20.048C51.4708 21.4839 52.1095 22.3309 53.0954 22.3309C53.818 22.3309 54.3529 21.8757 54.4773 21.0629H56.4678C56.3683 22.8109 55.0962 24 53.0705 24C50.7285 24 49.3269 22.391 49.3269 20.0781Z" fill="white"/>
<path d="M56.8483 13.7096H58.958V19.1317H59.072L61.5083 16.2444H63.9301L61.1071 19.537L64.0731 23.8498H61.6016L59.5271 20.7842L58.958 21.4332V23.8498H56.8483V13.7076V13.7096Z" fill="white"/>
<path d="M63.36 20.0781C63.36 17.7455 64.7865 16.1458 67.0942 16.1458C69.0796 16.1458 70.4117 17.2997 70.5009 19.0579H68.5104C68.3964 18.3001 67.9018 17.79 67.1285 17.79C66.1477 17.79 65.5039 18.6121 65.5039 20.048C65.5039 21.4839 66.1425 22.3309 67.1285 22.3309C67.851 22.3309 68.386 21.8757 68.5104 21.0629H70.5009C70.4014 22.8109 69.1293 24 67.1036 24C64.7616 24 63.36 22.391 63.36 20.0781Z" fill="white"/>
<path d="M72.9909 23.8507H70.8812V13.7085H72.9318V17.5858H73.021C73.3673 16.689 74.1396 16.1447 75.2935 16.1447C76.8786 16.1447 77.9278 17.224 77.9226 19.0071V23.8507H75.8129V19.3834C75.8181 18.4473 75.3122 17.8978 74.4558 17.8978C73.5995 17.8978 72.9951 18.4722 72.9899 19.4529V23.8507H72.9909Z" fill="white"/>
<path d="M78.2556 21.7264C78.2556 20.0283 79.6074 19.5224 81.1127 19.3845C82.4346 19.2559 82.955 19.1917 82.955 18.7013V18.6712C82.955 18.0471 82.5445 17.6853 81.826 17.6853C81.0682 17.6853 80.6172 18.0565 80.4741 18.5624L78.523 18.4038C78.8154 17.0166 80.0138 16.1458 81.8353 16.1458C83.5293 16.1458 85.0637 16.9088 85.0637 18.721V23.8517H83.0628V22.7974H83.0037C82.6326 23.5055 81.9048 23.9958 80.78 23.9958C79.3286 23.9958 78.2545 23.2328 78.2545 21.7275L78.2556 21.7264ZM82.9695 21.1324V20.3248C82.7165 20.4928 81.9639 20.6026 81.5036 20.6669C80.7613 20.7706 80.2709 21.0629 80.2709 21.657C80.2709 22.251 80.7364 22.5382 81.3854 22.5382C82.3112 22.5382 82.9705 21.9286 82.9705 21.1314L82.9695 21.1324Z" fill="white"/>
<path d="M85.6482 14.1947C85.6482 13.61 86.1634 13.13 86.7875 13.13C87.4116 13.13 87.931 13.61 87.931 14.1947C87.931 14.7794 87.4158 15.2646 86.7875 15.2646C86.1593 15.2646 85.6482 14.7846 85.6482 14.1947ZM85.727 16.2453H87.8367V23.8517H85.727V16.2453Z" fill="white"/>
<path d="M90.6535 23.8507H88.5438V16.2443H90.554V17.5858H90.6432C90.9853 16.6994 91.8022 16.1448 92.9312 16.1448C94.5164 16.1448 95.5562 17.2344 95.5562 19.0072V23.8507H93.4465V19.3835C93.4516 18.4525 92.9416 17.8979 92.0946 17.8979C91.2476 17.8979 90.6587 18.4722 90.6535 19.4529V23.8507Z" fill="white"/>
<defs>
<linearGradient id="paint0_linear_2144_14272" x1="-1.00976" y1="0.0787904" x2="24.0881" y2="23.0763" gradientUnits="userSpaceOnUse">
<stop stop-color="#FC9237"/>
<stop offset="0.48" stop-color="#7013C5"/>
<stop offset="1" stop-color="#20BF55"/>
</linearGradient>
</defs>
</svg>
