<svg width="96" height="24" viewBox="0 0 96 24" fill="none" xmlns="http://www.w3.org/2000/svg">
<path d="M24 0H0V24H24V0Z" fill="url(#paint0_linear_111_8068)"/>
<path d="M15.4668 5.83594L12.0726 14.1193H11.9274L8.53218 5.83594H5.31836V18.1646H7.84588V10.1103H7.94851L11.1395 18.1034H12.8605L16.0515 10.1404H16.1531V14.3723H18.6816V5.83594H15.4668Z" fill="white"/>
<path d="M18.6819 15.6357H16.1533V18.1643H18.6819V15.6357Z" fill="white"/>
<path d="M33.6788 0L36.4717 6.81434H36.5909L39.3838 0H42.0285V10.1422H39.9489V3.54039H39.8649L37.2399 10.0914H35.8238L33.1988 3.51551H33.1148V10.1412H31.0352V0H33.6798H33.6788Z" fill="black"/>
<path d="M42.4688 6.37391C42.4688 4.02679 43.9202 2.4375 46.1584 2.4375C48.1686 2.4375 49.7341 3.71474 49.7341 6.30031V6.87983H44.5546V6.88502C44.5546 8.01918 45.2233 8.71689 46.2777 8.71689C46.9805 8.71689 47.5259 8.41521 47.7384 7.83569L49.6895 7.96424C49.3919 9.37521 48.124 10.2917 46.2424 10.2917C43.9005 10.2917 42.4688 8.78636 42.4688 6.37495V6.37391ZM47.7477 5.5715C47.7425 4.66541 47.1091 4.01124 46.1926 4.01124C45.2762 4.01124 44.5982 4.7048 44.5536 5.5715H47.7477Z" fill="black"/>
<path d="M54.1798 4.11954H52.7492V7.80404C52.7492 8.38874 53.0415 8.54633 53.4624 8.54633C53.6604 8.54633 53.8833 8.49656 53.987 8.47687L54.3187 10.0465C54.1062 10.1159 53.7195 10.2248 53.1752 10.2445C51.6451 10.3087 50.6301 9.5706 50.6394 8.08084V4.11954H49.5996V2.5344H50.6394V0.712891H52.7492V2.53544H54.1798V4.12058V4.11954Z" fill="black"/>
<path d="M54.2188 8.01717C54.2188 6.31903 55.5707 5.81311 57.076 5.67523C58.3978 5.54667 58.9183 5.4824 58.9183 4.99203V4.96197C58.9183 4.33786 58.5077 3.97605 57.7893 3.97605C57.0314 3.97605 56.5805 4.34719 56.4374 4.85311L54.4863 4.69449C54.7786 3.30737 55.9771 2.43652 57.7986 2.43652C59.4926 2.43652 61.0269 3.19955 61.0269 5.01173V10.1424H59.0261V9.0881H58.967C58.5958 9.79618 57.8681 10.2865 56.7432 10.2865C55.2918 10.2865 54.2178 9.52352 54.2178 8.01821L54.2188 8.01717ZM58.9328 7.42313V6.61553C58.6798 6.78348 57.9272 6.89337 57.4668 6.95765C56.7246 7.06132 56.2342 7.35367 56.2342 7.94771C56.2342 8.54175 56.6997 8.82892 57.3487 8.82892C58.2744 8.82892 58.9338 8.21933 58.9338 7.4221L58.9328 7.42313Z" fill="black"/>
<path d="M63.8001 10.1422H61.6904V0H63.8001V10.1422Z" fill="black"/>
<path d="M31.0352 13.71H35.096C37.3343 13.71 38.4632 14.7892 38.4632 16.31C38.4632 17.5033 37.6857 18.2508 36.6314 18.4892V18.5888C37.7852 18.6437 38.8603 19.5498 38.8603 21.0499C38.8603 22.6641 37.6473 23.8532 35.3686 23.8532H31.0352V13.711V13.71ZM34.7694 17.9543C35.6454 17.9543 36.2996 17.4691 36.2996 16.6667C36.2996 15.9337 35.7595 15.4434 34.8088 15.4434H33.1801V17.9543H34.7694ZM34.928 22.0991C36.1265 22.0991 36.6459 21.5983 36.6459 20.8364C36.6459 19.9997 36.0073 19.4057 34.9768 19.4057H33.1791V22.0991H34.927H34.928Z" fill="black"/>
<path d="M41.3441 23.8502H39.2344V13.708H41.3441V23.8502Z" fill="black"/>
<path d="M41.7451 20.0778C41.7451 17.7203 43.181 16.1455 45.4887 16.1455C47.7964 16.1455 49.2323 17.7203 49.2323 20.0778C49.2323 22.4353 47.7964 23.9997 45.4887 23.9997C43.181 23.9997 41.7451 22.4197 41.7451 20.0778ZM47.0884 20.0633C47.0884 18.7363 46.5441 17.7555 45.4991 17.7555C44.4541 17.7555 43.8901 18.7363 43.8901 20.0633C43.8901 21.3903 44.4344 22.3658 45.4991 22.3658C46.5638 22.3658 47.0884 21.3903 47.0884 20.0633Z" fill="black"/>
<path d="M49.3271 20.0778C49.3271 17.7452 50.7537 16.1455 53.0614 16.1455C55.0467 16.1455 56.3789 17.2994 56.4681 19.0576H54.4776C54.3635 18.2998 53.869 17.7897 53.0956 17.7897C52.1149 17.7897 51.4711 18.6119 51.4711 20.0477C51.4711 21.4836 52.1097 22.3306 53.0956 22.3306C53.8182 22.3306 54.3532 21.8754 54.4776 21.0627H56.4681C56.3685 22.8106 55.0965 23.9997 53.0707 23.9997C50.7288 23.9997 49.3271 22.3907 49.3271 20.0778Z" fill="black"/>
<path d="M56.8486 13.7101H58.9584V19.1321H59.0724L61.5087 16.2449H63.9304L61.1075 19.5375L64.0735 23.8502H61.602L59.5275 20.7846L58.9584 21.4336V23.8502H56.8486V13.708V13.7101Z" fill="black"/>
<path d="M63.3604 20.0778C63.3604 17.7452 64.7869 16.1455 67.0946 16.1455C69.0799 16.1455 70.4121 17.2994 70.5013 19.0576H68.5108C68.3967 18.2998 67.9022 17.7897 67.1288 17.7897C66.1481 17.7897 65.5043 18.6119 65.5043 20.0477C65.5043 21.4836 66.1429 22.3306 67.1288 22.3306C67.8514 22.3306 68.3864 21.8754 68.5108 21.0627H70.5013C70.4017 22.8106 69.1297 23.9997 67.1039 23.9997C64.762 23.9997 63.3604 22.3907 63.3604 20.0778Z" fill="black"/>
<path d="M72.9906 23.8502H70.8809V13.708H72.9315V17.5853H73.0206C73.3669 16.6886 74.1393 16.1443 75.2931 16.1443C76.8783 16.1443 77.9274 17.2235 77.9222 19.0067V23.8502H75.8125V19.383C75.8177 18.4468 75.3118 17.8974 74.4555 17.8974C73.5991 17.8974 72.9947 18.4717 72.9895 19.4525V23.8502H72.9906Z" fill="black"/>
<path d="M78.2559 21.7262C78.2559 20.028 79.6078 19.5221 81.1131 19.3842C82.4349 19.2557 82.9554 19.1914 82.9554 18.701V18.671C82.9554 18.0468 82.5448 17.685 81.8264 17.685C81.0685 17.685 80.6176 18.0562 80.4745 18.5621L78.5234 18.4035C78.8157 17.0164 80.0142 16.1455 81.8357 16.1455C83.5297 16.1455 85.064 16.9085 85.064 18.7207V23.8514H83.0632V22.7971H83.0041C82.6329 23.5052 81.9052 23.9955 80.7803 23.9955C79.3289 23.9955 78.2549 23.2325 78.2549 21.7272L78.2559 21.7262ZM82.9699 21.1321V20.3245C82.7169 20.4925 81.9643 20.6024 81.504 20.6666C80.7617 20.7703 80.2713 21.0627 80.2713 21.6567C80.2713 22.2507 80.7368 22.5379 81.3858 22.5379C82.3116 22.5379 82.9709 21.9283 82.9709 21.1311L82.9699 21.1321Z" fill="black"/>
<path d="M85.6484 14.1946C85.6484 13.6099 86.1637 13.1299 86.7878 13.1299C87.4119 13.1299 87.9313 13.6099 87.9313 14.1946C87.9313 14.7793 87.416 15.2645 86.7878 15.2645C86.1595 15.2645 85.6484 14.7845 85.6484 14.1946ZM85.7272 16.2452H87.8369V23.8516H85.7272V16.2452Z" fill="black"/>
<path d="M90.6537 23.8504H88.5439V16.2441H90.5541V17.5856H90.6433C90.9854 16.6992 91.8023 16.1445 92.9313 16.1445C94.5165 16.1445 95.5563 17.2341 95.5563 19.0069V23.8504H93.4466V19.3832C93.4518 18.4523 92.9417 17.8976 92.0947 17.8976C91.2477 17.8976 90.6588 18.472 90.6537 19.4527V23.8504Z" fill="black"/>
<defs>
<linearGradient id="paint0_linear_111_8068" x1="-1.00976" y1="0.0787904" x2="24.0881" y2="23.0763" gradientUnits="userSpaceOnUse">
<stop stop-color="#FC9237"/>
<stop offset="0.48" stop-color="#7013C5"/>
<stop offset="1" stop-color="#20BF55"/>
</linearGradient>
</defs>
</svg>
